<svg id="Слой_1" data-name="Слой 1" xmlns="http://www.w3.org/2000/svg" xmlns:xlink="http://www.w3.org/1999/xlink" viewBox="0 0 25.65 24.36"><defs><style>.cls-1{fill:url(#Безымянный_градиент_179);}.cls-2{fill:url(#Безымянный_градиент_188);}.cls-3{fill:url(#Безымянный_градиент_187);}.cls-4{fill:url(#Безымянный_градиент_195);}.cls-5{fill:none;stroke:#300b0d;stroke-miterlimit:10;}</style><linearGradient id="Безымянный_градиент_179" x1="325.22" y1="212.6" x2="361.73" y2="178.65" gradientUnits="userSpaceOnUse"><stop offset="0" stop-color="#0f0402"/><stop offset="0.12" stop-color="#240b09"/><stop offset="0.37" stop-color="#591f1a"/><stop offset="0.72" stop-color="#ae3d36"/><stop offset="1" stop-color="#f5574d"/></linearGradient><linearGradient id="Безымянный_градиент_188" x1="324.58" y1="212.12" x2="357.55" y2="184.44" gradientUnits="userSpaceOnUse"><stop offset="0" stop-color="#2b0908"/><stop offset="0.1" stop-color="#330c0b"/><stop offset="0.26" stop-color="#481412"/><stop offset="0.44" stop-color="#6a211d"/><stop offset="0.66" stop-color="#99342e"/><stop offset="0.89" stop-color="#d64b42"/><stop offset="1" stop-color="#f5574d"/></linearGradient><linearGradient id="Безымянный_градиент_187" x1="326.59" y1="212.59" x2="353.68" y2="183.85" gradientUnits="userSpaceOnUse"><stop offset="0" stop-color="#4d100e"/><stop offset="0.12" stop-color="#541311"/><stop offset="0.29" stop-color="#671b18"/><stop offset="0.48" stop-color="#852823"/><stop offset="0.7" stop-color="#b03a33"/><stop offset="0.94" stop-color="#e75148"/><stop offset="1" stop-color="#f5574d"/></linearGradient><linearGradient id="Безымянный_градиент_195" x1="330.02" y1="207.91" x2="347.31" y2="191.98" gradientUnits="userSpaceOnUse"><stop offset="0" stop-color="#5c1311"/><stop offset="0.21" stop-color="#761f1b"/><stop offset="0.64" stop-color="#ba3d36"/><stop offset="1" stop-color="#f5574d"/></linearGradient></defs><path class="cls-1" d="M322.38,203.49V191.14H348v24.35H334.38A12,12,0,0,1,322.38,203.49Z" transform="translate(-322.38 -191.14)"/><path class="cls-2" d="M324.18,202.73V191.17H348v22.56H335.18A11,11,0,0,1,324.18,202.73Z" transform="translate(-322.38 -191.14)"/><path class="cls-3" d="M326,201.93V191.17H348v20.76H336A10,10,0,0,1,326,201.93Z" transform="translate(-322.38 -191.14)"/><path class="cls-4" d="M348,210.13H336.77c-5.52,0-9-3.47-9-9v-10H348Z" transform="translate(-322.38 -191.14)"/><line class="cls-5" x1="10.47" y1="4.85" x2="20.13" y2="14.51"/><line class="cls-5" x1="10.47" y1="14.51" x2="20.13" y2="4.85"/></svg>