<svg version="1.1" id="Layer_1" xmlns="http://www.w3.org/2000/svg" x="0px" y="0px"
     viewBox="20 20 56 56">
    <style>
        .cross {
            fill: #afaeae;
        }
        .cross:hover {
            fill: red;
        }
    </style>
    <g class="cross" transform="rotate(45, 48, 48)">
	    <path  d="M75.5,44.3v7.5c0,1-0.4,1.9-1.1,2.7s-1.6,1.1-2.7,1.1H55.5v16.3c0,1-0.4,1.9-1.1,2.7
		    s-1.6,1.1-2.7,1.1h-7.5c-1,0-1.9-0.4-2.7-1.1s-1.1-1.6-1.1-2.7V55.5H24.3c-1,0-1.9-0.4-2.7-1.1s-1.1-1.6-1.1-2.7v-7.5
		    c0-1,0.4-1.9,1.1-2.7s1.6-1.1,2.7-1.1h16.3V24.3c0-1,0.4-1.9,1.1-2.7s1.6-1.1,2.7-1.1h7.5c1,0,1.9,0.4,2.7,1.1s1.1,1.6,1.1,2.7
		    v16.3h16.3c1,0,1.9,0.4,2.7,1.1S75.5,43.2,75.5,44.3z"/>
    </g>
</svg>
