<svg id="Слой_1" data-name="Слой 1" xmlns="http://www.w3.org/2000/svg" xmlns:xlink="http://www.w3.org/1999/xlink" viewBox="0 0 228.87 228.32"><defs><style>.cls-1{fill:url(#Безымянный_градиент_193);}.cls-2{fill:#604127;}.cls-3{fill:#1a0d04;}.cls-4{fill:#42210b;stroke:#42210b;}.cls-4,.cls-6,.cls-8{stroke-miterlimit:10;stroke-width:0.25px;}.cls-5{fill:#1c0e05;}.cls-6{fill:none;}.cls-6,.cls-8{stroke:#000;}.cls-7,.cls-8{fill:red;}.cls-7{opacity:0.49;}.cls-8{opacity:0.08;}.cls-9{fill:#fff;}.cls-10{fill:url(#Безымянный_градиент_214);}.cls-11{fill:url(#Безымянный_градиент_191);}.cls-12{fill:url(#Безымянный_градиент_179);}.cls-13{fill:url(#Безымянный_градиент_20);}.cls-14{fill:url(#Безымянный_градиент_236);}.cls-15{fill:url(#Безымянный_градиент_203);}.cls-16{fill:url(#Безымянный_градиент_177);}.cls-17{fill:url(#Безымянный_градиент_179-2);}.cls-18{fill:url(#Безымянный_градиент_179-3);}.cls-19{fill:url(#Безымянный_градиент_179-4);}.cls-20{fill:url(#Безымянный_градиент_172);}.cls-21{fill:url(#Безымянный_градиент_171);}.cls-22{fill:url(#Безымянный_градиент_60);}.cls-23{fill:url(#Безымянный_градиент_6);}.cls-24{fill:url(#Безымянный_градиент_62);}.cls-25{fill:#780b0f;}.cls-26{fill:url(#Безымянный_градиент_86);}.cls-27{fill:url(#Безымянный_градиент_60-2);}.cls-28{fill:url(#Безымянный_градиент_6-2);}.cls-29{fill:url(#Безымянный_градиент_62-2);}.cls-30{fill:url(#Безымянный_градиент_128);}.cls-31{fill:url(#Безымянный_градиент_86-2);}.cls-32{fill:url(#Безымянный_градиент_60-3);}.cls-33{fill:url(#Безымянный_градиент_6-3);}.cls-34{fill:url(#Безымянный_градиент_62-3);}.cls-35{fill:url(#Безымянный_градиент_128-2);}.cls-36{fill:url(#Безымянный_градиент_86-3);}.cls-37{fill:url(#Безымянный_градиент_60-4);}.cls-38{fill:url(#Безымянный_градиент_6-4);}.cls-39{fill:url(#Безымянный_градиент_62-4);}.cls-40{fill:url(#Безымянный_градиент_128-3);}.cls-41{fill:url(#Безымянный_градиент_86-4);}.cls-42{fill:url(#Безымянный_градиент_60-5);}.cls-43{fill:url(#Безымянный_градиент_6-5);}.cls-44{fill:url(#Безымянный_градиент_62-5);}.cls-45{fill:url(#Безымянный_градиент_128-4);}.cls-46{fill:url(#Безымянный_градиент_86-5);}.cls-47{fill:url(#Безымянный_градиент_60-6);}.cls-48{fill:url(#Безымянный_градиент_6-6);}.cls-49{fill:url(#Безымянный_градиент_62-6);}.cls-50{fill:url(#Безымянный_градиент_128-5);}.cls-51{fill:url(#Безымянный_градиент_86-6);}.cls-52{fill:url(#Безымянный_градиент_60-7);}.cls-53{fill:url(#Безымянный_градиент_6-7);}.cls-54{fill:url(#Безымянный_градиент_62-7);}.cls-55{fill:url(#Безымянный_градиент_128-6);}.cls-56{fill:url(#Безымянный_градиент_86-7);}</style><linearGradient id="Безымянный_градиент_193" x1="227.33" y1="133.02" x2="175.99" y2="133.51" gradientUnits="userSpaceOnUse"><stop offset="0" stop-color="#9c6c25"/><stop offset="0.06" stop-color="#a27228"/><stop offset="0.15" stop-color="#b28430"/><stop offset="0.24" stop-color="#cda13c"/><stop offset="0.34" stop-color="#efc64d"/><stop offset="0.54" stop-color="#fce37e"/><stop offset="0.78" stop-color="#f6c84c"/><stop offset="0.79" stop-color="#e9bc45"/><stop offset="0.86" stop-color="#b78b27"/><stop offset="0.92" stop-color="#936812"/><stop offset="0.97" stop-color="#7d5205"/><stop offset="1" stop-color="#754a00"/></linearGradient><linearGradient id="Безымянный_градиент_214" x1="236.07" y1="383.91" x2="410.33" y2="383.91" gradientTransform="translate(-310.04 -381.88) scale(1.31 1.57)" gradientUnits="userSpaceOnUse"><stop offset="0" stop-color="#78531c"/><stop offset="0.44" stop-color="#624616"/><stop offset="1" stop-color="#4a370f"/></linearGradient><linearGradient id="Безымянный_градиент_191" x1="-2.59" y1="133.66" x2="52.9" y2="132.76" gradientUnits="userSpaceOnUse"><stop offset="0" stop-color="#754a00"/><stop offset="0.06" stop-color="#7d5205"/><stop offset="0.15" stop-color="#936812"/><stop offset="0.26" stop-color="#b78b27"/><stop offset="0.38" stop-color="#e9bc45"/><stop offset="0.41" stop-color="#f6c84c"/><stop offset="0.63" stop-color="#fce37e"/><stop offset="0.77" stop-color="#efc64d"/><stop offset="1" stop-color="#9c6c25"/></linearGradient><radialGradient id="Безымянный_градиент_179" cx="20.28" cy="92.52" r="11.47" gradientUnits="userSpaceOnUse"><stop offset="0" stop-color="#8c6221"/><stop offset="0.17" stop-color="#8f6522"/><stop offset="0.29" stop-color="#986d26"/><stop offset="0.39" stop-color="#a77c2c"/><stop offset="0.47" stop-color="#bc9034"/><stop offset="0.56" stop-color="#d7aa3f"/><stop offset="0.63" stop-color="#f6c84c"/><stop offset="0.81" stop-color="#fce37e"/><stop offset="0.94" stop-color="#efc64d"/><stop offset="1" stop-color="#9c6c25"/></radialGradient><linearGradient id="Безымянный_градиент_20" x1="293.45" y1="221.88" x2="300.87" y2="221.88" gradientUnits="userSpaceOnUse"><stop offset="0" stop-color="#9e6e25"/><stop offset="0.21" stop-color="#fbbd35"/><stop offset="1" stop-color="#fcee21"/></linearGradient><linearGradient id="Безымянный_градиент_236" x1="293.45" y1="221.88" x2="300.87" y2="221.88" gradientUnits="userSpaceOnUse"><stop offset="0.01" stop-color="#8c6221"/><stop offset="0.08" stop-color="#916723"/><stop offset="0.17" stop-color="#a07529"/><stop offset="0.27" stop-color="#b88c33"/><stop offset="0.37" stop-color="#d9ac40"/><stop offset="0.44" stop-color="#f6c84c"/><stop offset="0.62" stop-color="#fce37e"/><stop offset="0.8" stop-color="#efc64d"/><stop offset="0.81" stop-color="#e2b847"/><stop offset="0.84" stop-color="#c89c3a"/><stop offset="0.87" stop-color="#b58731"/><stop offset="0.9" stop-color="#a7782a"/><stop offset="0.94" stop-color="#9f6f26"/><stop offset="1" stop-color="#9c6c25"/></linearGradient><linearGradient id="Безымянный_градиент_203" x1="138.15" y1="261.52" x2="367" y2="261.52" gradientUnits="userSpaceOnUse"><stop offset="0" stop-color="#9c6c25"/><stop offset="0" stop-color="#9d6e26"/><stop offset="0.06" stop-color="#bd8e33"/><stop offset="0.11" stop-color="#d6a83e"/><stop offset="0.17" stop-color="#e8ba46"/><stop offset="0.23" stop-color="#f3c44b"/><stop offset="0.3" stop-color="#f6c84c"/><stop offset="0.36" stop-color="#dfb23f"/><stop offset="0.49" stop-color="#a67a1d"/><stop offset="0.58" stop-color="#754a00"/><stop offset="0.62" stop-color="#7c5003"/><stop offset="0.67" stop-color="#8f600c"/><stop offset="0.72" stop-color="#ae7a1a"/><stop offset="0.79" stop-color="#da9e2d"/><stop offset="0.8" stop-color="#e3a631"/><stop offset="1" stop-color="#8c6221"/></linearGradient><linearGradient id="Безымянный_градиент_177" x1="140.15" y1="262.55" x2="365" y2="262.55" gradientUnits="userSpaceOnUse"><stop offset="0" stop-color="#8c6221"/><stop offset="0.2" stop-color="#e3a631"/><stop offset="0.21" stop-color="#da9e2d"/><stop offset="0.26" stop-color="#ae7a1a"/><stop offset="0.3" stop-color="#8f600c"/><stop offset="0.34" stop-color="#7c5003"/><stop offset="0.36" stop-color="#754a00"/><stop offset="0.39" stop-color="#7d5205"/><stop offset="0.43" stop-color="#926711"/><stop offset="0.48" stop-color="#b58926"/><stop offset="0.54" stop-color="#e6b842"/><stop offset="0.55" stop-color="#f6c84c"/><stop offset="0.71" stop-color="#fce37e"/><stop offset="0.85" stop-color="#efc64d"/><stop offset="1" stop-color="#9c6c25"/></linearGradient><radialGradient id="Безымянный_градиент_179-2" cx="65.57" cy="93.03" r="11.72" xlink:href="#Безымянный_градиент_179"/><radialGradient id="Безымянный_градиент_179-3" cx="156.49" cy="92.59" r="11.3" xlink:href="#Безымянный_градиент_179"/><radialGradient id="Безымянный_градиент_179-4" cx="201.78" cy="92.62" r="11.32" xlink:href="#Безымянный_градиент_179"/><linearGradient id="Безымянный_градиент_172" x1="138.13" y1="322.54" x2="367" y2="322.54" gradientUnits="userSpaceOnUse"><stop offset="0" stop-color="#9c6c25"/><stop offset="0.15" stop-color="#efc64d"/><stop offset="0.29" stop-color="#fce37e"/><stop offset="0.45" stop-color="#f6c84c"/><stop offset="0.46" stop-color="#e6b842"/><stop offset="0.52" stop-color="#b58926"/><stop offset="0.57" stop-color="#926711"/><stop offset="0.61" stop-color="#7d5205"/><stop offset="0.64" stop-color="#754a00"/><stop offset="0.66" stop-color="#7c5003"/><stop offset="0.7" stop-color="#8f600c"/><stop offset="0.74" stop-color="#ae7a1a"/><stop offset="0.79" stop-color="#da9e2d"/><stop offset="0.8" stop-color="#e3a631"/><stop offset="1" stop-color="#8c6221"/></linearGradient><linearGradient id="Безымянный_градиент_171" x1="139.13" y1="322.54" x2="366" y2="322.54" xlink:href="#Безымянный_градиент_177"/><linearGradient id="Безымянный_градиент_60" x1="241.24" y1="323.29" x2="256.77" y2="321.59" gradientTransform="translate(204.21 728.59) rotate(-135)" gradientUnits="userSpaceOnUse"><stop offset="0" stop-color="#5e4116"/><stop offset="0.34" stop-color="#604316"/><stop offset="0.5" stop-color="#674818"/><stop offset="0.61" stop-color="#74521a"/><stop offset="0.71" stop-color="#86611e"/><stop offset="0.8" stop-color="#9e7323"/><stop offset="0.87" stop-color="#ba8a28"/><stop offset="0.94" stop-color="#dca42f"/><stop offset="1" stop-color="#ffc036"/></linearGradient><linearGradient id="Безымянный_градиент_6" x1="241.57" y1="323.26" x2="256.66" y2="321.6" gradientTransform="translate(204.22 728.59) rotate(-135)" gradientUnits="userSpaceOnUse"><stop offset="0" stop-color="#8c6121"/><stop offset="0.34" stop-color="#8e6321"/><stop offset="0.47" stop-color="#956823"/><stop offset="0.55" stop-color="#a07225"/><stop offset="0.63" stop-color="#b18028"/><stop offset="0.69" stop-color="#c7922c"/><stop offset="0.74" stop-color="#e2a830"/><stop offset="0.78" stop-color="#fbbd35"/><stop offset="1" stop-color="#fcee21"/></linearGradient><linearGradient id="Безымянный_градиент_62" x1="244.27" y1="322" x2="261.73" y2="322" gradientTransform="translate(204.21 728.59) rotate(-135)" gradientUnits="userSpaceOnUse"><stop offset="0" stop-color="#fbbd35"/><stop offset="0.03" stop-color="#f5b834"/><stop offset="0.23" stop-color="#d0992d"/><stop offset="0.43" stop-color="#b28128"/><stop offset="0.63" stop-color="#9d6f24"/><stop offset="0.82" stop-color="#906522"/><stop offset="1" stop-color="#8c6121"/></linearGradient><radialGradient id="Безымянный_градиент_86" cx="253.07" cy="318.93" r="7.81" gradientTransform="translate(204.21 728.59) rotate(-135)" gradientUnits="userSpaceOnUse"><stop offset="0" stop-color="#c74f53"/><stop offset="0.01" stop-color="#c64e52"/><stop offset="0.28" stop-color="#a63237"/><stop offset="0.54" stop-color="#8f1e23"/><stop offset="0.78" stop-color="#821217"/><stop offset="1" stop-color="#7d0e13"/></radialGradient><linearGradient id="Безымянный_градиент_60-2" x1="207.12" y1="205.64" x2="220.68" y2="194.16" gradientTransform="matrix(1, 0, 0, 1, 0, 0)" xlink:href="#Безымянный_градиент_60"/><linearGradient id="Безымянный_градиент_6-2" x1="207.37" y1="205.42" x2="220.54" y2="194.28" gradientTransform="matrix(1, 0, 0, 1, 0, 0)" xlink:href="#Безымянный_градиент_6"/><linearGradient id="Безымянный_градиент_62-2" x1="209.77" y1="198.23" x2="221.97" y2="198.23" gradientTransform="matrix(1, 0, 0, 1, 0, 0)" xlink:href="#Безымянный_градиент_62"/><radialGradient id="Безымянный_градиент_128" cx="215.87" cy="198.23" r="6" gradientUnits="userSpaceOnUse"><stop offset="0.78" stop-color="#59090b"/><stop offset="0.78" stop-color="#5b090b"/><stop offset="0.81" stop-color="#6c0a0d"/><stop offset="0.84" stop-color="#770b0f"/><stop offset="0.88" stop-color="#7e0c10"/><stop offset="1" stop-color="#800c10"/></radialGradient><radialGradient id="Безымянный_градиент_86-2" cx="216.56" cy="196.15" r="7.3" gradientTransform="matrix(1, 0, 0, 1, 0, 0)" xlink:href="#Безымянный_градиент_86"/><linearGradient id="Безымянный_градиент_60-3" x1="8.12" y1="205.64" x2="21.68" y2="194.16" gradientTransform="matrix(1, 0, 0, 1, 0, 0)" xlink:href="#Безымянный_градиент_60"/><linearGradient id="Безымянный_градиент_6-3" x1="8.37" y1="205.42" x2="21.54" y2="194.28" gradientTransform="matrix(1, 0, 0, 1, 0, 0)" xlink:href="#Безымянный_градиент_6"/><linearGradient id="Безымянный_градиент_62-3" x1="10.77" y1="198.23" x2="22.97" y2="198.23" gradientTransform="matrix(1, 0, 0, 1, 0, 0)" xlink:href="#Безымянный_градиент_62"/><radialGradient id="Безымянный_градиент_128-2" cx="16.87" cy="198.23" xlink:href="#Безымянный_градиент_128"/><radialGradient id="Безымянный_градиент_86-3" cx="17.56" cy="196.15" r="7.3" gradientTransform="matrix(1, 0, 0, 1, 0, 0)" xlink:href="#Безымянный_градиент_86"/><linearGradient id="Безымянный_градиент_60-4" x1="36.87" y1="206.69" x2="52.37" y2="193.58" gradientTransform="matrix(1, 0, 0, 1, 0, 0)" xlink:href="#Безымянный_градиент_60"/><linearGradient id="Безымянный_градиент_6-4" x1="37.16" y1="206.45" x2="52.21" y2="193.71" gradientTransform="matrix(1, 0, 0, 1, 0, 0)" xlink:href="#Безымянный_градиент_6"/><linearGradient id="Безымянный_градиент_62-4" x1="39.9" y1="198.23" x2="53.84" y2="198.23" gradientTransform="matrix(1, 0, 0, 1, 0, 0)" xlink:href="#Безымянный_градиент_62"/><radialGradient id="Безымянный_градиент_128-3" cx="46.87" cy="198.23" r="6.86" xlink:href="#Безымянный_градиент_128"/><radialGradient id="Безымянный_градиент_86-4" cx="47.66" cy="195.86" r="8.35" gradientTransform="matrix(1, 0, 0, 1, 0, 0)" xlink:href="#Безымянный_градиент_86"/><linearGradient id="Безымянный_градиент_60-5" x1="178.87" y1="206.69" x2="194.37" y2="193.58" gradientTransform="matrix(1, 0, 0, 1, 0, 0)" xlink:href="#Безымянный_градиент_60"/><linearGradient id="Безымянный_градиент_6-5" x1="179.16" y1="206.45" x2="194.21" y2="193.71" gradientTransform="matrix(1, 0, 0, 1, 0, 0)" xlink:href="#Безымянный_градиент_6"/><linearGradient id="Безымянный_градиент_62-5" x1="181.9" y1="198.23" x2="195.84" y2="198.23" gradientTransform="matrix(1, 0, 0, 1, 0, 0)" xlink:href="#Безымянный_градиент_62"/><radialGradient id="Безымянный_градиент_128-4" cx="188.87" cy="198.23" r="6.86" xlink:href="#Безымянный_градиент_128"/><radialGradient id="Безымянный_градиент_86-5" cx="189.66" cy="195.86" r="8.35" gradientTransform="matrix(1, 0, 0, 1, 0, 0)" xlink:href="#Безымянный_градиент_86"/><linearGradient id="Безымянный_градиент_60-6" x1="66.62" y1="207.75" x2="84.06" y2="192.99" gradientTransform="matrix(1, 0, 0, 1, 0, 0)" xlink:href="#Безымянный_градиент_60"/><linearGradient id="Безымянный_градиент_6-6" x1="66.94" y1="207.48" x2="83.88" y2="193.15" gradientTransform="matrix(1, 0, 0, 1, 0, 0)" xlink:href="#Безымянный_градиент_6"/><linearGradient id="Безымянный_градиент_62-6" x1="70.02" y1="198.23" x2="85.71" y2="198.23" gradientTransform="matrix(1, 0, 0, 1, 0, 0)" xlink:href="#Безымянный_градиент_62"/><radialGradient id="Безымянный_градиент_128-5" cx="77.87" cy="198.23" r="7.71" xlink:href="#Безымянный_градиент_128"/><radialGradient id="Безымянный_градиент_86-6" cx="78.76" cy="195.56" r="9.39" gradientTransform="matrix(1, 0, 0, 1, 0, 0)" xlink:href="#Безымянный_градиент_86"/><linearGradient id="Безымянный_градиент_60-7" x1="143.62" y1="207.75" x2="161.06" y2="192.99" gradientTransform="matrix(1, 0, 0, 1, 0, 0)" xlink:href="#Безымянный_градиент_60"/><linearGradient id="Безымянный_градиент_6-7" x1="143.94" y1="207.48" x2="160.88" y2="193.15" gradientTransform="matrix(1, 0, 0, 1, 0, 0)" xlink:href="#Безымянный_градиент_6"/><linearGradient id="Безымянный_градиент_62-7" x1="147.02" y1="198.23" x2="162.71" y2="198.23" gradientTransform="matrix(1, 0, 0, 1, 0, 0)" xlink:href="#Безымянный_градиент_62"/><radialGradient id="Безымянный_градиент_128-6" cx="154.87" cy="198.23" r="7.71" xlink:href="#Безымянный_градиент_128"/><radialGradient id="Безымянный_градиент_86-7" cx="155.76" cy="195.56" r="9.39" gradientTransform="matrix(1, 0, 0, 1, 0, 0)" xlink:href="#Безымянный_градиент_86"/></defs><title>Сибирская корона</title><polygon class="cls-1" points="204.87 173.23 228.87 129.23 204.87 93.23 179.87 129.23 204.87 173.23"/><path class="cls-2" d="M336.5,240.5a14.25,14.25,0,0,0,3-9c.1-4.12.06-6.17-1.2-7.82-2.86-3.78-7.45-4.69-10.65-5.33a27.3,27.3,0,0,0-10,0,43.67,43.67,0,0,0,0-4.66,14.29,14.29,0,0,0-4.66-10c-1.27-1.06-2.77-1.79-2.66-2s2.67.61,3.32.67c1.22.11-2.35-3.37-6-6.66a60.83,60.83,0,0,0-8.66-6.66c-2.68-1.75-3.92-2.3-4.66-4-.94-2.18-.34-4.6,0-6,.58-2.34,1.38-3.11,2-4.66,1.45-3.63.22-8-.66-10.65-2.58-7.78-8.58-11.35-8-12s4.48,2.27,4.67,2-4.68-2.62-5.33-6.66c-.22-1.37.1-2.56.66-4.66.45-1.64.78-2,2-5.33a24.65,24.65,0,0,0,1.33-4c.08-.63.53-4.39-2-6.66-2.2-2-5.23-1.53-6.66-1.33a13.37,13.37,0,0,0-6,2.67c-3.92,2.76-4.36,5.25-6.66,5.32-1.59,0-1.6-1.14-4-2-1.5-.54-2.54-.44-10,.66-4.37.65-4.56.69-5.33.67-3.91-.14-4.49-1.59-7.32-1.33-3.25.29-3.3,2.27-6.66,2.66a11.36,11.36,0,0,1-7.33-2c-2.79-2-2.35-3.81-4.66-4.66a8.78,8.78,0,0,0-6.66.67,11.34,11.34,0,0,0-3.33,4.66c-.34,1,.22,3.53,1.34,8.65.21,1,.57,2.56,1.33,2.67.59.08,1-.78,1.33-.67.67.26-1.18,5.1-.67,5.33.3.14,1.24-1.39,1.34-1.33s-4.08,6.71-3.33,7.32c.51.42,3.21-2.12,3.33-2s-3.1,2.28-5.33,6c-.78,1.3-2.58,2.89-3.33,6.66-.67,3.33,1.33,7.32,0,8.65s-1.33,2-1.33,2a29.43,29.43,0,0,0,0,6.66c.37,1.87,0,10,0,10a43.82,43.82,0,0,0-6,7.32c-1.92,2.9-1.19,3.06-4,8.66l-4.66,9.32s.38,1.32,0,7.33c-.54,8.63-.43,8.67-.67,10.65-.38,3.16-.71,3.32-2.66,11.32-1.48,6.08-2.9,12.59-2.67,12.66s1.79-7.39,2-7.33-2.23,6.59-1.33,14.65a33.64,33.64,0,0,0,2.66,10.66,65.47,65.47,0,0,0,7.33,12.65c2.82,4,4.23,6,6,7.32,3.71,2.78,8.66,4.31,12,5.33,2.55.79,3.62.93,5.33,2a15.83,15.83,0,0,1,5.32,5.32c.45,1-3.58-7.7-3.33-8,.08-.09.76,1.28,2,2.67,1.74,1.94,3,2.16,6,4,4.35,2.66,5.59,4.58,6.66,4,.91-.49.95-2.38,1-3.57a19.54,19.54,0,0,0-.31-3.09c.11,0,.83,3.38,1.33,3.33.31,0,.19-1.35.67-2.66.79-2.23,2.86-3.35,4-4,2-1.14,8.42-4.82,12-8.66,4-4.35,4.92-9.47,5.33-9.32s-1.74,7.19-1.34,7.33,1-3.54,4-6.66c1.64-1.71,2.2-1.41,5.33-4,2.45-2,3.67-3,4.66-4.66,2.27-3.74,1.75-8,2-8s.07,1.91.66,4.66c.1.45.43,2,.67,2s-.33-2.63.66-5.33c.89-2.41,2.1-2.29,3.33-4.66,1.86-3.58.89-7.28,1.33-7.33s.33,1.95,1.34,4c2.16,4.39,7.52,6.17,9.32,6.66,3.65,1,4.45-.08,6.66,1.33,1.8,1.15,1.75,2.17,4.66,4.66,1.73,1.49,2.6,2.23,4,2.67,1,.31,2.41.31,5.66-.34a32.11,32.11,0,0,0,4.32-1c2-.66,2-1.33,3.2-2.66.59-.65.53,1.27,2.13,2a5.85,5.85,0,0,0,4,0c.9-.25,3.15-.86,4-2.67.61-1.3,1.33-2,1.33-2.66,0-1.11,3.06,1.61,3.33,1.33s-.66-3.33-.8-3.33c-.43,0,3.6,2.2,3.6,2.2a17.88,17.88,0,0,0-1.46-6.19,19.83,19.83,0,0,0-4.67-6,14.69,14.69,0,0,0-4.66-3.33,19.68,19.68,0,0,1-8-5.32,4.13,4.13,0,0,1,1.33-2c.75-.69,1.82-1.42,2-1.33s-.29,1.78,0,2,.65-1.18,1.33-2a10.71,10.71,0,0,0,2-3.33,7.24,7.24,0,0,1,1.33-2.67C331.86,238.08,334.48,243.54,336.5,240.5Z" transform="translate(-138.13 -124.77)"/><path class="cls-3" d="M336.5,240.5a16.86,16.86,0,0,0,2.32-4.4,17.51,17.51,0,0,0,.68-4.93,28.66,28.66,0,0,0-.18-5,5.6,5.6,0,0,0-.9-2.3,10.06,10.06,0,0,0-1.68-1.83,13.51,13.51,0,0,0-4.32-2.45,32.86,32.86,0,0,0-4.83-1.23,27.12,27.12,0,0,0-9.92,0h-.05v-.05c.08-1.38.07-2.77,0-4.15a15.2,15.2,0,0,0-.66-4.08,13,13,0,0,0-4.52-6.77c-.55-.41-1.13-.78-1.71-1.16a3.29,3.29,0,0,1-.42-.34.15.15,0,0,1,0-.18c0-.08.11-.07.16-.08a1.22,1.22,0,0,1,.27,0c.35.05.69.14,1,.22a17,17,0,0,0,2,.48c.15,0,.1-.16,0-.31s-.18-.28-.28-.42-.43-.54-.66-.79c-1.89-2-3.95-3.88-6-5.73a67.12,67.12,0,0,0-6.55-5.09c-1.15-.77-2.33-1.49-3.5-2.25a9.6,9.6,0,0,1-1.64-1.29,5,5,0,0,1-1.05-1.82,8.49,8.49,0,0,1-.13-4.16,14.25,14.25,0,0,1,1.26-4,11.71,11.71,0,0,0,1.52-3.81,13.17,13.17,0,0,0,0-4.11,25.48,25.48,0,0,0-.94-4,22.7,22.7,0,0,0-1.54-3.83,26.75,26.75,0,0,0-4.9-6.63c-.47-.5-1-1-1.44-1.5a3,3,0,0,1-.33-.44.5.5,0,0,1-.07-.34.33.33,0,0,1,.32-.22,2.86,2.86,0,0,1,1.05.31c.63.3,1.24.64,1.84,1l.91.5a4.66,4.66,0,0,0,.45.22l.19.06s-.07,0-.07.08,0,0,0,0l-.07-.07A23,23,0,0,1,289,151a7.73,7.73,0,0,1-2-3.66c-.47-5.76,3.82-10.51,4-16a7.3,7.3,0,0,0-1.16-3.84,5.52,5.52,0,0,0-3.25-2.23,10.51,10.51,0,0,0-4.07,0,11.16,11.16,0,0,0-3.86,1.3,22.31,22.31,0,0,0-3.38,2.33,29.94,29.94,0,0,0-2.9,3,4.52,4.52,0,0,1-1.72,1.28,2.6,2.6,0,0,1-2.16-.16c-.62-.41-1.09-.88-1.69-1.2a6.78,6.78,0,0,0-1.88-.7,15.64,15.64,0,0,0-4.08.18l-4.11.58-4.11.61a12,12,0,0,1-2.1.2,12.47,12.47,0,0,1-2.1-.22c-1.4-.23-2.66-.94-4-1.09a6,6,0,0,0-3.85.83c-.57.36-1.11.81-1.76,1.14a6.33,6.33,0,0,1-2,.64,10,10,0,0,1-4.21-.31,12,12,0,0,1-3.79-1.84,8.25,8.25,0,0,1-1.53-1.48c-.45-.55-.8-1.17-1.19-1.71a4.34,4.34,0,0,0-3.45-1.63,9.27,9.27,0,0,0-4,.67,3.42,3.42,0,0,0-.85.45,7.94,7.94,0,0,0-.73.69,13.85,13.85,0,0,0-1.26,1.6,10.23,10.23,0,0,0-1,1.79,3.32,3.32,0,0,0-.17,1.91c.17,1.36.47,2.71.75,4.07s.56,2.73.91,4a4.25,4.25,0,0,0,.37.9c.16.27.37.45.55.42s.45-.26.74-.5a.71.71,0,0,1,.36-.17.44.44,0,0,1,.46.3,1.58,1.58,0,0,1,.05.63c-.18,1.44-.65,2.75-.86,4.08a1.15,1.15,0,0,0,0,.4s0,0-.08-.07h-.09l.13-.11a7.11,7.11,0,0,0,.64-.76l.17-.21.1-.12.08-.07c-.08,0,.47-.18.46.17s0,.12,0,.19a.34.34,0,0,1,0,.08l-.06.14-.12.24-.51.91c-.68,1.21-1.37,2.41-2,3.64a7.45,7.45,0,0,0-.69,1.84.44.44,0,0,0,0,.12s-.07,0,0,0a.88.88,0,0,0,.36-.13,6.22,6.22,0,0,0,.84-.53c.56-.4,1.07-.84,1.66-1.27a.65.65,0,0,1,.17-.09c-.09,0,.45-.15.41.36a.44.44,0,0,1-.09.15l-.21.21-.39.34-.77.69a23.29,23.29,0,0,0-2.78,3,19.38,19.38,0,0,0-1.14,1.7c-.39.62-.83,1.14-1.22,1.71A12.36,12.36,0,0,0,211,164a10.56,10.56,0,0,0-.39,2,11.37,11.37,0,0,0,.06,2c.13,1.37.48,2.7.53,4.15a3.73,3.73,0,0,1-.14,1.13,2.27,2.27,0,0,1-.66.95,6.53,6.53,0,0,0-.62.77,2.43,2.43,0,0,0-.38.76v0a40.78,40.78,0,0,0-.2,4.13,15.31,15.31,0,0,0,.14,2c0,.31.12.69.15,1s.05.71.06,1.06c.08,2.8,0,5.58-.13,8.36v.13l-.1.1a44.11,44.11,0,0,0-4.74,5.54,19.08,19.08,0,0,0-3.37,6.41c-.92,2.3-2.08,4.48-3.16,6.68l-3.29,6.59,0-.25a16.06,16.06,0,0,1,.18,2.72c0,.88,0,1.77-.05,2.65-.08,1.76-.21,3.51-.3,5.27l-.28,5.26a28.79,28.79,0,0,1-.73,5.28c-.9,3.41-1.79,6.79-2.6,10.21s-1.64,6.85-2.2,10.26a1.58,1.58,0,0,0,0,.28s0,0,0,0c0-.32-.74-.18-.58-.11,0,0,0,0,0-.07s.13-.39.19-.59l.33-1.27.61-2.56c.22-.86.4-1.69.69-2.59l0-.1c.13,0-.22-.12.47-.24.46.46.16.35.24.45v.1l-.08.35-.16.64-.3,1.27a37.6,37.6,0,0,0,1,20.6,55.54,55.54,0,0,0,4.58,9.4c1.82,3,3.89,5.83,5.93,8.67a18.75,18.75,0,0,0,3.46,3.85,24.1,24.1,0,0,0,4.48,2.62,71.61,71.61,0,0,0,9.91,3.44,12.82,12.82,0,0,1,4.68,2.56,15.93,15.93,0,0,1,3.57,4l.09.15,0,.09c-.21.12.52-.15-.46.28l-.14-.3-.27-.6-.55-1.2-1.07-2.41c-.34-.81-.69-1.62-1-2.45l-.23-.63a3.37,3.37,0,0,1-.09-.34.48.48,0,0,1,0-.29c.07-.27.67-.15.49-.1l.08.09.74,1.1a10.71,10.71,0,0,0,3.7,3.51c1.53.84,3.1,1.68,4.57,2.67.73.49,1.45,1,2.15,1.53s1.39,1.11,2.1,1.54c.37.21.72.32,1,.13a1.58,1.58,0,0,0,.58-.95,10.75,10.75,0,0,0,.24-2.56,12.54,12.54,0,0,0-.27-2.57l0-.16v-.11c-.1.17.05-.5.45-.19a1.82,1.82,0,0,1,.14.37l.19.64c.12.42.24.84.38,1.25a6.13,6.13,0,0,0,.22.6c.05.09.09.18.14.26s.15.13,0,.1,0,0,0-.08,0-.2.05-.3l.1-.66a6.41,6.41,0,0,1,.88-2.55,10.46,10.46,0,0,1,4.13-3.35c1.52-.88,3-1.79,4.48-2.75a49.36,49.36,0,0,0,4.24-3.09,22.94,22.94,0,0,0,3.71-3.66,22,22,0,0,0,2.68-4.47c.37-.79.69-1.6,1-2.42l.24-.62a2.84,2.84,0,0,1,.14-.32.89.89,0,0,1,.09-.16.73.73,0,0,1,.09-.11.28.28,0,0,1,.28-.05c.21.15.15.24.18.31v.19c0,.12,0,.23,0,.35s-.07.44-.11.66c-.36,1.73-.86,3.42-1.21,5.12a5,5,0,0,0-.09.63.28.28,0,0,0,0,.13s0,0,0,0-.22,0-.2,0a1.16,1.16,0,0,0,.12-.22l.49-1.21a21.13,21.13,0,0,1,1.19-2.38,13.49,13.49,0,0,1,3.5-4c.74-.51,1.5-.94,2.2-1.45s1.4-1.05,2.07-1.61a23.93,23.93,0,0,0,3.8-3.58,11.79,11.79,0,0,0,2.05-4.73,17.19,17.19,0,0,0,.34-2.58c0-.45,0-.85.09-1.34a.35.35,0,0,1,.07-.15.2.2,0,0,1,.32.08,1.15,1.15,0,0,1,.05.2l0,.34.06.65a23.11,23.11,0,0,0,.94,5.13.87.87,0,0,0,.11.22s-.06,0-.11,0,0,0,0,0,0-.08,0-.13,0-.43,0-.64c0-.44,0-.89,0-1.33a11.11,11.11,0,0,1,.42-2.63,6.35,6.35,0,0,1,1.24-2.37,21.09,21.09,0,0,0,1.75-1.95,10.15,10.15,0,0,0,1.65-4.87,22.8,22.8,0,0,0,.07-2.62c0-.11,0-.22,0-.34s0-.22.15-.41a.24.24,0,0,1,.32.1.91.91,0,0,1,.08.18c0,.11.06.22.09.33l.29,1.28a9.77,9.77,0,0,0,2.45,4.52,14.4,14.4,0,0,0,4.25,3,18.21,18.21,0,0,0,5,1.6,25.24,25.24,0,0,0,2.62.18,4.81,4.81,0,0,1,2.51.88,8,8,0,0,1,1.9,1.85,19.13,19.13,0,0,0,1.76,1.94c.64.6,1.31,1.16,2,1.73a10.2,10.2,0,0,0,2.15,1.46c1.59.79,3.42.44,5.12.18s3.46-.65,5.15-1.09a5.16,5.16,0,0,0,2.27-1.18c.29-.32.54-.68.82-1l.43-.51a.49.49,0,0,1,.31-.21c.19,0,.26.14.32.23a3.64,3.64,0,0,0,1.66,1.91,4.68,4.68,0,0,0,2.54.3,8.67,8.67,0,0,0,4.72-2,4,4,0,0,0,.7-1.08c.2-.4.43-.78.66-1.15a3.74,3.74,0,0,0,.57-1.15,1.72,1.72,0,0,1,.05-.35.33.33,0,0,1,.36-.13,2.06,2.06,0,0,1,.63.24c.79.41,1.48,1,2.25,1.36h.08a.33.33,0,0,0,0-.12,1.17,1.17,0,0,0,0-.32c0-.21-.07-.43-.11-.64-.1-.42-.22-.85-.35-1.27-.06-.2-.13-.41-.21-.62s-.12-.23-.09-.25.05-.09,0,0l0,.05.13.09c.36.25.74.47,1.12.69.75.45,1.52.88,2.29,1.3l-.09.05a16,16,0,0,0-1.9-7,22.26,22.26,0,0,0-4.72-5.61,15.33,15.33,0,0,0-2.89-2.26,12.57,12.57,0,0,0-1.67-.76c-.58-.22-1.14-.48-1.69-.75a19.57,19.57,0,0,1-5.87-4.42h0A5,5,0,0,1,324,247.3a9.27,9.27,0,0,1,1.2-.85,1.3,1.3,0,0,1,.34-.15c.05,0,.16,0,.16.08a.62.62,0,0,1,0,.19c0,.25-.05.49-.08.73a4.49,4.49,0,0,0-.06.73c0,.11,0,.26.13.29s.17-.14.24-.23c.24-.42.42-.88.68-1.3a14.14,14.14,0,0,1,.88-1.16,10.75,10.75,0,0,0,.81-1.22,23.67,23.67,0,0,0,1.13-2.7,5.46,5.46,0,0,1,.75-1.25,1.23,1.23,0,0,1,1.21-.69,12,12,0,0,1,2.57,1.37,2.06,2.06,0,0,0,1.41.26A2,2,0,0,0,336.5,240.5Zm0,0a2,2,0,0,1-1.11.9,2,2,0,0,1-1.41-.25,12,12,0,0,0-2.58-1.36,1.2,1.2,0,0,0-1.18.68,5.42,5.42,0,0,0-.74,1.25,24.6,24.6,0,0,1-1.13,2.71,10.75,10.75,0,0,1-.81,1.22c-.28.4-.64.74-.88,1.16s-.44.87-.68,1.3c-.07.1-.13.24-.28.25s-.15-.22-.16-.33a4.4,4.4,0,0,1,0-.73c0-.25.07-.49.09-.73s0-.29-.12-.23a1.61,1.61,0,0,0-.33.15,9.06,9.06,0,0,0-1.18.85,4.87,4.87,0,0,0-1.7,2.31v0A19.52,19.52,0,0,0,328.2,254c.55.27,1.11.53,1.69.75a12.09,12.09,0,0,1,1.68.77,15.14,15.14,0,0,1,2.91,2.26,22,22,0,0,1,4.74,5.62,16.06,16.06,0,0,1,1.94,7.08v.1l-.09,0c-.77-.42-1.54-.85-2.3-1.29-.37-.23-.75-.45-1.12-.7l-.13-.1-.07-.06c-.05,0,0-.18.05-.16s.14.22.21.33.15.42.21.63c.13.42.25.84.35,1.27q.08.33.12.66a1.27,1.27,0,0,1,0,.34.3.3,0,0,1-.05.19.19.19,0,0,1-.22,0c-.83-.38-1.49-.95-2.27-1.36-.34-.18-.95-.47-.85.14a3.82,3.82,0,0,1-.58,1.2,12.86,12.86,0,0,0-.65,1.14,4.45,4.45,0,0,1-.72,1.12,8.74,8.74,0,0,1-4.81,2.07,4.8,4.8,0,0,1-2.62-.3,3.8,3.8,0,0,1-1.74-2c-.12-.22-.21-.19-.37,0l-.42.51c-.27.34-.52.7-.83,1a5.19,5.19,0,0,1-2.34,1.23c-1.71.45-3.43.78-5.17,1.11a19.1,19.1,0,0,1-2.62.3,5.46,5.46,0,0,1-2.61-.49,10.27,10.27,0,0,1-2.2-1.49c-.67-.56-1.35-1.12-2-1.73a19.42,19.42,0,0,1-1.79-1.95,7.57,7.57,0,0,0-1.85-1.81,4.76,4.76,0,0,0-2.4-.84,23.55,23.55,0,0,1-2.64-.17,19,19,0,0,1-5-1.61,14.79,14.79,0,0,1-4.32-3,10,10,0,0,1-2.52-4.63l-.3-1.29a2.63,2.63,0,0,0-.08-.3l-.06-.12s0,0,0,0,0,.11,0,.2,0,.22,0,.32a23.48,23.48,0,0,1-.05,2.65,10.45,10.45,0,0,1-1.7,5,19.73,19.73,0,0,1-1.76,2,6.07,6.07,0,0,0-1.17,2.27,10.53,10.53,0,0,0-.41,2.56c0,.44,0,.87,0,1.31,0,.22,0,.44,0,.67a1.48,1.48,0,0,1,0,.19.25.25,0,0,1-.09.15.21.21,0,0,1-.26,0,.87.87,0,0,1-.22-.35,23.92,23.92,0,0,1-1-5.21l0-.65,0-.32a1.05,1.05,0,0,1,0-.13c0-.06,0,.12.2,0s0,0,0,0c-.05.38,0,.86-.08,1.29a18,18,0,0,1-.34,2.63,12.31,12.31,0,0,1-2.1,4.87,24.08,24.08,0,0,1-3.85,3.64c-.67.56-1.36,1.11-2.08,1.63s-1.49,1-2.2,1.45a13.07,13.07,0,0,0-3.39,3.89,20.22,20.22,0,0,0-1.16,2.33l-.5,1.23a1.27,1.27,0,0,1-.21.35.24.24,0,0,1-.34,0,.29.29,0,0,1-.07-.17,1.33,1.33,0,0,1,0-.2c0-.24.06-.46.1-.68.35-1.73.84-3.42,1.2-5.13,0-.21.08-.43.11-.64l0-.31v-.13s-.06-.08.05,0,.11,0,.11,0l-.06.12a2.55,2.55,0,0,0-.13.29l-.23.61c-.31.82-.63,1.65-1,2.45a23.07,23.07,0,0,1-2.73,4.55,24.18,24.18,0,0,1-3.76,3.74,51.79,51.79,0,0,1-4.27,3.12q-2.21,1.46-4.5,2.77a10,10,0,0,0-4,3.21,5.82,5.82,0,0,0-.82,2.38l-.09.66c0,.11,0,.22-.07.34a1,1,0,0,1-.07.21.39.39,0,0,1-.32.22c-.34-.05-.35-.22-.44-.31a2.59,2.59,0,0,1-.17-.33q-.14-.32-.24-.63c-.15-.42-.27-.85-.39-1.27l-.19-.63-.07-.24c.34.22.49-.31.4-.11v.06l0,.16a13.06,13.06,0,0,1,.29,2.66,11.22,11.22,0,0,1-.26,2.68,2,2,0,0,1-.78,1.23,1.07,1.07,0,0,1-.8.15,2.37,2.37,0,0,1-.69-.27c-.79-.48-1.44-1-2.15-1.56s-1.41-1-2.14-1.52c-1.45-1-3-1.79-4.54-2.64a11.31,11.31,0,0,1-3.88-3.65l-.73-1.09,0,0c-.2,0,.32.07.37-.11s0,0,0,0,.06.19.09.29l.22.61c.31.81.66,1.61,1,2.42l1.07,2.4.54,1.2.28.6.14.29c-1,.47-.29.09-.52.18l0-.07-.07-.13a15.86,15.86,0,0,0-3.45-3.82,12.16,12.16,0,0,0-4.51-2.44,73.74,73.74,0,0,1-10-3.45,25.47,25.47,0,0,1-4.59-2.68,19.17,19.17,0,0,1-3.58-4c-2.06-2.86-4.13-5.69-6-8.71a55.5,55.5,0,0,1-4.66-9.51,38.13,38.13,0,0,1-1.06-21l.3-1.29.16-.64.07-.3v0c.08,0-.2-.13.22.28.64-.11.27-.15.38-.12l0,0c-.26.77-.45,1.67-.66,2.51l-.61,2.56-.33,1.29c-.06.21-.12.42-.21.66a2,2,0,0,1-.11.23c.14.13-.72.28-.69-.12a.53.53,0,0,1,0-.17c0-.15,0-.26,0-.38.58-3.52,1.41-6.91,2.2-10.34s1.7-6.84,2.58-10.22.74-6.9,1-10.41c.1-1.75.23-3.51.31-5.25,0-.88.06-1.75.06-2.62a17,17,0,0,0-.15-2.53l0-.15.05-.1,3.3-6.59c1.09-2.2,2.24-4.36,3.15-6.62a19.49,19.49,0,0,1,3.47-6.55,43.66,43.66,0,0,1,4.83-5.63l-.11.22c.12-2.76.22-5.55.15-8.31,0-.34,0-.68-.06-1a10.15,10.15,0,0,0-.14-1,16.89,16.89,0,0,1-.14-2.12,39.24,39.24,0,0,1,.21-4.2v0a2.47,2.47,0,0,1,.48-1.11,7,7,0,0,1,.69-.84,1.66,1.66,0,0,0,.52-.72,2.8,2.8,0,0,0,.11-.93c0-1.33-.38-2.7-.52-4.09a11.62,11.62,0,0,1-.05-2.13,9.68,9.68,0,0,1,.42-2.09A12.56,12.56,0,0,1,212.3,160c.39-.58.84-1.13,1.19-1.68a17.24,17.24,0,0,1,1.19-1.74,22.56,22.56,0,0,1,2.85-3.09l.78-.69.39-.34.16-.15s0,0,0,0c0,.45.44.35.32.34l-.06,0L217.46,154a10.12,10.12,0,0,1-.91.58,1.47,1.47,0,0,1-.62.18.49.49,0,0,1-.46-.28.82.82,0,0,1-.05-.39,7.06,7.06,0,0,1,.75-2c.62-1.26,1.31-2.46,2-3.66l.5-.9.12-.23,0-.1,0,0s0-.09,0,.07.48.15.38.16h0l-.07.09-.15.19a7.52,7.52,0,0,1-.7.83.92.92,0,0,1-.28.2l-.12,0a.44.44,0,0,1-.22,0,.39.39,0,0,1-.22-.27,1.6,1.6,0,0,1,0-.62c.23-1.41.71-2.73.86-4.05a1,1,0,0,0,0-.4s0,0,.09,0,0,0-.1.07a2,2,0,0,1-1,.6,1.12,1.12,0,0,1-1.06-.67,4.16,4.16,0,0,1-.42-1c-.37-1.38-.61-2.72-.92-4.08s-.57-2.71-.74-4.11a7.59,7.59,0,0,1-.06-1.07,2.61,2.61,0,0,1,.26-1.09,10.82,10.82,0,0,1,1-1.87,13.17,13.17,0,0,1,1.32-1.66,6.87,6.87,0,0,1,.78-.74,3.48,3.48,0,0,1,1-.51,9.74,9.74,0,0,1,4.17-.71,6.9,6.9,0,0,1,2.09.48,3.71,3.71,0,0,1,1.7,1.35c.42.58.75,1.18,1.18,1.7a7.35,7.35,0,0,0,1.44,1.4,11.53,11.53,0,0,0,3.64,1.78,9.44,9.44,0,0,0,4,.31,5.94,5.94,0,0,0,1.9-.6c.6-.3,1.13-.74,1.74-1.11a6.39,6.39,0,0,1,4.12-.89c1.45.18,2.67.89,4,1.1a11.57,11.57,0,0,0,2,.22,11.71,11.71,0,0,0,2-.19l4.12-.6,4.11-.57a15.89,15.89,0,0,1,4.2-.18,7.42,7.42,0,0,1,2,.75c.62.34,1.15.86,1.69,1.21a2.25,2.25,0,0,0,1.85.13,4.26,4.26,0,0,0,1.58-1.18,29.31,29.31,0,0,1,2.93-3,22.68,22.68,0,0,1,3.45-2.37,11.4,11.4,0,0,1,4-1.32,10.56,10.56,0,0,1,4.19.06,5.8,5.8,0,0,1,3.44,2.37,7.63,7.63,0,0,1,1.21,4,8.85,8.85,0,0,1-.14,2.11c-.17.69-.42,1.34-.65,2-.48,1.3-1,2.6-1.49,3.89-.25.64-.53,1.28-.77,1.92s-.4,1.31-.58,2a8.57,8.57,0,0,0-.41,4,7.48,7.48,0,0,0,2,3.52,22.78,22.78,0,0,0,3.17,2.66l.1.11c0,.06.06,0,.05.17s-.15.14-.17.14a.76.76,0,0,1-.31-.09,5.14,5.14,0,0,1-.47-.23l-.92-.5c-.6-.34-1.2-.69-1.82-1a2.66,2.66,0,0,0-.93-.3c-.23-.06.05.36.26.58.45.51.95,1,1.43,1.49a27.49,27.49,0,0,1,4.93,6.7,22.94,22.94,0,0,1,1.54,3.87,23.56,23.56,0,0,1,.94,4.07,13.26,13.26,0,0,1,0,4.17,8.23,8.23,0,0,1-.6,2c-.27.65-.63,1.25-.94,1.86a13.8,13.8,0,0,0-1.25,3.92,8.09,8.09,0,0,0,.12,4.06,4.62,4.62,0,0,0,1,1.75,9.06,9.06,0,0,0,1.61,1.28c1.16.76,2.34,1.48,3.49,2.25a69.14,69.14,0,0,1,6.56,5.12c2.06,1.85,4.12,3.71,6,5.75a10.13,10.13,0,0,1,.67.8,2.66,2.66,0,0,1,.29.45.72.72,0,0,1,.09.27.22.22,0,0,1-.22.22,16.41,16.41,0,0,1-2-.49c-.33-.08-.67-.17-1-.22-.14,0-.41,0-.28.06a3.25,3.25,0,0,0,.4.31c.57.38,1.16.75,1.71,1.17a13.1,13.1,0,0,1,4.55,6.83,15.46,15.46,0,0,1,.65,4.1c0,1.39,0,2.78,0,4.16l-.05,0a27.28,27.28,0,0,1,10,0,33.35,33.35,0,0,1,4.84,1.24,13.72,13.72,0,0,1,4.33,2.47,10.12,10.12,0,0,1,1.68,1.84,5.55,5.55,0,0,1,.9,2.32,27.71,27.71,0,0,1,.17,5,17.47,17.47,0,0,1-.69,4.93A16.89,16.89,0,0,1,336.5,240.5Z" transform="translate(-138.13 -124.77)"/><path class="cls-4" d="M338,264.63a16.61,16.61,0,0,0-2,0,11.79,11.79,0,0,0-2,.67c-2.17.58-4-1.34-4-1.34l.67,2h-1.34l2.67,2-2.67-.67,1.34,2-1.34-.66-.66,2a8.88,8.88,0,0,0-4-3.33,16.56,16.56,0,0,0-2,0V270a4.63,4.63,0,0,1-1.33-.67,5,5,0,0,1-1.33-2.66,5.25,5.25,0,0,0,0,2c.24,1.06.67,2.66.67,2.66a6.15,6.15,0,0,1-1.34-1.33,9.87,9.87,0,0,0-1.33-1.33v2.66l-1.33-2v2l-.66-2-1.34,2v-2a7.28,7.28,0,0,0-1.33.67,8.74,8.74,0,0,0-1.33,1.33,2.88,2.88,0,0,1,0-2,3.16,3.16,0,0,1,1.33-1.33,3.39,3.39,0,0,0-2,.67,4.22,4.22,0,0,0-1.33,2,17,17,0,0,1,.59-2.45c0-.07.05-.12.08-.21.59-1.67.66-2,.66-2a5.68,5.68,0,0,0-2,1.33,7.6,7.6,0,0,0-1.34,2,6.85,6.85,0,0,1,.67-3.33,9.83,9.83,0,0,1,1.33-2,5.93,5.93,0,0,0-2,1.34,6.58,6.58,0,0,0-1.33,2s-.33-2.62,1.33-4a4.92,4.92,0,0,1,4-.67,12.92,12.92,0,0,1,4.66,2c.1-.14-1.46-2-4-3.33-1.24-.67-2-.84-2-1.33,0-.78,1.78-1.82,2.66-1.33.44.24.41.73.67,1.33.57,1.35,1.95,1.76,4,2.66a47.8,47.8,0,0,1,5.33,2.67,20.73,20.73,0,0,0-3.33-2.67c-1.9-1.13-2.32-.78-3.33-2-.57-.68-1.13-1.89-.66-2.66.59-1,2.54-.68,2.66-.66,2.13.35,2.41,2.09,4.66,3.32a7.83,7.83,0,0,0,5.33.67s-3.54-.38-5.33-2.66c-.24-.32-1-1.24-.67-2a1.35,1.35,0,0,1,.67-.67c1.79-.86,5.33,2,5.33,2s-1.5-1.52-2-2c-1-.94-1.52-.52-2-1.33-.23-.38.67-1.33.67-1.33l6,2a22.86,22.86,0,0,0,3.33-6.66C337.37,240.06,339,235,339,235a5.52,5.52,0,0,0-2.36-.34c-1,.43-1.43,1.48-2,1.34-.3-.08-.26-.39-.67-.67a1.8,1.8,0,0,0-2,0c-.67.56,0,1.48-.67,2.66-.53,1-1.62,1.57-2,1.34s0-2,0-2a8.37,8.37,0,0,0-1.33,2,14.23,14.23,0,0,1-.66,1.33l-.67-1.33L324,242.66v-1.34a6.6,6.6,0,0,0-1.34,2A9.89,9.89,0,0,0,322,246l-1.33-3.32a3.32,3.32,0,0,1,0,2c-.23.65-.82,1.4-1.34,1.33-.79-.09-1.33-2-1.33-2l-.66,4.66-.67-3.33a12.33,12.33,0,0,0-1.33,2,23.9,23.9,0,0,0-.67,2.66l-.66-2.66-1.33,4a12.34,12.34,0,0,0-.15-1.79A6.69,6.69,0,0,0,312,248l-1.33,2-2,2,.67-3.33-4,2.66,2-2.66a10.63,10.63,0,0,1-3.33,2c-1.28.48-1.52.2-4,.66s-4,.67-4,.67l1.33-2s-2.77.52-4-.67a8.7,8.7,0,0,1-1.33-2,5.52,5.52,0,0,0-1.33,0,6.1,6.1,0,0,0-2.66,1.33,19.27,19.27,0,0,1,.66-2C289.53,245,290,244,290,244a2.63,2.63,0,0,1-2,0c-.85-.51-.59-1.57-1.33-2-1.14-.67-3.33.67-3.33.67s.39-.65,1.33-2A7.75,7.75,0,0,0,286,238a4.16,4.16,0,0,0,0-1.33,5.08,5.08,0,0,0-2,.67,7.6,7.6,0,0,0-1.33,1.33l-.67-2-.66,2a27.29,27.29,0,0,0-.67,7.32,47.85,47.85,0,0,0,.67,6l-2.67-4.66a17.12,17.12,0,0,0,0,2,36.82,36.82,0,0,1,0,4.67,9.18,9.18,0,0,1-.66-1.34,21.76,21.76,0,0,0-1.33-2.66,18,18,0,0,1,.66,4.66c.17,3.93-.66,4.66-.66,4.66a23.58,23.58,0,0,0-1.33-4,16.31,16.31,0,0,0-2.67-4,13.2,13.2,0,0,1,1.33,4,10.61,10.61,0,0,1,0,4.66s-.82-.86-2-2a12.3,12.3,0,0,0-4.67-2.66,25.38,25.38,0,0,1,2.67,4,16.38,16.38,0,0,1,1.33,3.33l-1.33-1.33a14.7,14.7,0,0,0-2.67-2,14.8,14.8,0,0,1,2.67,4,11.8,11.8,0,0,1,.66,6,11.33,11.33,0,0,0-2-2c-1.84-1.49-3-1.05-4.67-2.66-.8-.76-1.33-1.33-1.33-1.33a4.2,4.2,0,0,0,.67,2.66c1.09,1.4,2.58,1,4,2.67a11,11,0,0,1,.67,1.33,16.33,16.33,0,0,0-6-1.33,7.9,7.9,0,0,0-3.33.66,8.57,8.57,0,0,1,4.66,1.33,6.63,6.63,0,0,1,2,2.67s-1.49-.3-4-.67a17,17,0,0,0-4.66,0s1.24.19,3.33.67c.67.15,4,1.33,4,1.33s-3.48.37-8,1.33c-2.58.55-3.94,1.45-6.66,2.66-4,1.79-5.18,2.55-7.32,2.67a6.36,6.36,0,0,1-4.66-1.33,8.22,8.22,0,0,1-2-1.34s1.65,2.71,1.33,3.33c-.18.36-1.2-.39-2-.66a7.38,7.38,0,0,1-3.32-2.67s.62,1.84.66,2c.3,1.25.77,1.13.67,1.33s-1.17.06-2-.66a5.17,5.17,0,0,1-1.33-2.67c-.08,0,.86,2.66,0,3.33-.41.32-1.08-.58-1.33-.66a9.6,9.6,0,0,1-2-3.33,11.79,11.79,0,0,1,0,2.66c-.28.3-3.33-2.66-3.33-2.66a16.61,16.61,0,0,0,4,4,14.07,14.07,0,0,0,4.67,2s-.87-.95-.67-1.33,1.39.39,2.66.67a22.67,22.67,0,0,0,4.66.66s-2.07-.87-2-1.33c.13-.77,6,.77,14,0a61.27,61.27,0,0,1,9.32,0c.67,0,.05,1.79,0,2-.22.92-.84,2.07-1.33,2-.1,0-.44-.13-.66-1.34v3.48a2.43,2.43,0,0,0-.67-1.48,2.31,2.31,0,0,0-1.33-.66,4.29,4.29,0,0,1,.66,2,4.45,4.45,0,0,1-.66,2.67,4.37,4.37,0,0,0-.67-2,4.2,4.2,0,0,0-1.33-1.33,4.31,4.31,0,0,1,0,4.66s-.6-.57-.67-.67a4.75,4.75,0,0,1-.66-2.66,17.69,17.69,0,0,0-1.33,3.33c-.14.5-.42,1.17-.67,2a6.51,6.51,0,0,1-.67-2,6.59,6.59,0,0,1,0-2,3.85,3.85,0,0,0-1.33,2,3.94,3.94,0,0,0,0,2,5.31,5.31,0,0,0-.66-1.34,5.48,5.48,0,0,0-2.67-2,5.67,5.67,0,0,1,.67,2.66,5.61,5.61,0,0,1-.67,2.66l-2-3.33a12.56,12.56,0,0,1,0,3.33,6.8,6.8,0,0,1-.67,2,9.09,9.09,0,0,0-4-6,15.84,15.84,0,0,1,1.34,8.65l-3.33-6.65a20.82,20.82,0,0,1,1.33,5.32,21.18,21.18,0,0,1,0,4.66,45.06,45.06,0,0,0-4-6.65,28,28,0,0,0-6.66-6.66,45.25,45.25,0,0,1,6,8,42.63,42.63,0,0,1,2,4.66,58.81,58.81,0,0,0-6-4c-3.42-2-4.91-2-6.56-2.92a10.64,10.64,0,0,1-1.43-1.07,18,18,0,0,1-2.66-2.67,14.06,14.06,0,0,1-2.67-6,14.41,14.41,0,0,1,0-5.33,13.81,13.81,0,0,0-.66,5.33,16.66,16.66,0,0,0,2.66,7.33,27.11,27.11,0,0,0,4,5.32,17.51,17.51,0,0,1-8-3.33,15.44,15.44,0,0,1-5.33-8.65,15,15,0,0,1,0-6,18.74,18.74,0,0,0-1.33,7.33,16.68,16.68,0,0,0,1.33,6,18.31,18.31,0,0,1-4-7.32,16.5,16.5,0,0,1,0-8.66,21.08,21.08,0,0,1,2-4.66,13.39,13.39,0,0,0-2.66,3.33,18.29,18.29,0,0,0-2,5.33,15.9,15.9,0,0,1-.67-5.33,22.38,22.38,0,0,1,2-7.33,18,18,0,0,0-2,4,36,36,0,0,0-1.33,4,29.79,29.79,0,0,1,.67-6.65,28.54,28.54,0,0,1,2-6,18.41,18.41,0,0,0-2.67,4,24.62,24.62,0,0,0-2,6.66c-.07,0,.5-2.68.67-6a37.26,37.26,0,0,0,0-4,25.51,25.51,0,0,1-.67,4,26.33,26.33,0,0,1-1.33,4,12.35,12.35,0,0,1-.66-2.66,12.91,12.91,0,0,1,0-3.33,28.64,28.64,0,0,1,.66-3.33c.18-.76.34-1.39.67-2.67a26.84,26.84,0,0,1,.79-2.71c.09-.22.26-.72.54-1.28.67-1.33,1.33-2.22,2-3.33a15.78,15.78,0,0,0-3.33,3.33,8.43,8.43,0,0,0-1.33,3.33,22.69,22.69,0,0,1,.66-4.66c.65-2.73,1.33-4.67,1.33-4.67s-.23.34-1.33,2.67A29.13,29.13,0,0,1,194.8,258s.44-2.4,1.33-6.66c.81-3.86.67-4.66.67-4.66a8.34,8.34,0,0,1-.67,2,8.61,8.61,0,0,1-1.33,2,15,15,0,0,1,.67-8,5,5,0,0,1,.21-.5,16.57,16.57,0,0,1,.82-1.57c.57-1,1.14-2.2,1.63-3.26.37-.81.85-1.93,1.33-3.33l-2,2a8.44,8.44,0,0,1,.67-2,9.49,9.49,0,0,1,1.33-2,14.9,14.9,0,0,1,2-2,14.75,14.75,0,0,1-2,1.33c-.46.26-.91.48-1.33.67l4-5.33a27.38,27.38,0,0,1,4-4.66,21.45,21.45,0,0,1,2.66-2s-1.85.38-2.66.67a6.26,6.26,0,0,0-3.33,3.33,7,7,0,0,1,0-1.33,6.88,6.88,0,0,1,.67-2,9.71,9.71,0,0,0-2.67,2,15.36,15.36,0,0,0-2,2.66,9.75,9.75,0,0,1,1.33-3.33c.8-1.24,1.33-2,1.33-2a26.2,26.2,0,0,0-2.66,1.34,7.37,7.37,0,0,0-2,2,4.74,4.74,0,0,1,0-.66,7.22,7.22,0,0,1,1.33-3.33,23.56,23.56,0,0,1,1.33-2,11.78,11.78,0,0,0-2,1.33,18.3,18.3,0,0,0-1.33,1.33,34.78,34.78,0,0,1,2-4.66,33.4,33.4,0,0,1,6.66-8.65c3-2.93,4.48-4.39,6-4s1.28,1.89,3.33,4.66a22.21,22.21,0,0,0,6,5.33c2.64,1.77,3.43,1.66,6.66,3.33a43.11,43.11,0,0,1,10,7.32s-1.25-.52-3.33-1.33a24,24,0,0,0-11.32-1.33,21.71,21.71,0,0,1,6,.67,20.72,20.72,0,0,1,5.32,2,9.33,9.33,0,0,1,4,3.33,14.64,14.64,0,0,0-3.33-1.33,12.57,12.57,0,0,0-5.33,0,25.91,25.91,0,0,1,8,3.33,23.1,23.1,0,0,1,5.33,4.66,18.46,18.46,0,0,1,3.33,6,5.83,5.83,0,0,1-1.33-.67,33.52,33.52,0,0,0-8-4,16.43,16.43,0,0,0-4-.66,49.16,49.16,0,0,1,6.66,3.33,31,31,0,0,1,5.33,4,30.49,30.49,0,0,0-4-2,26.2,26.2,0,0,0-4.66-1.34c1.1.59,2,1,2.66,1.34a8.77,8.77,0,0,1,2,1.33,13.63,13.63,0,0,1,2.67,2s-.85-.45-1.34-.67a13.82,13.82,0,0,0-2-.67,20.91,20.91,0,0,0-2.67-.66,9.67,9.67,0,0,0-2.66,0c.76.32,1.9.34,2.66.66s1.87,1,2.67,1.34a12.55,12.55,0,0,0-2.75-.67,12.26,12.26,0,0,0-2.58,0l6,2.66a26.13,26.13,0,0,0-8-2l5.33,2s-2.25-.71-5.33-1.33a41.2,41.2,0,0,0-5.66-.65,9.33,9.33,0,0,1,4.33,1.32,7.29,7.29,0,0,0,1.74.83,19.86,19.86,0,0,0-6.4-.17c-1.3.19-5.33,1.33-5.33,1.33s1.33-.27,5.33-.66c.53,0,5.36.45,7.32.66a5.45,5.45,0,0,1,2.67.67,2.47,2.47,0,0,1,.4.39c.62-.09,1.36-.21,2.26-.39a58.68,58.68,0,0,0,7.33-2,24.22,24.22,0,0,0,6-2.66c1.78-1.16,1.65-1.51,4.66-4,1.55-1.28,2.81-2.19,5.33-4a47.6,47.6,0,0,1,6-4,25.53,25.53,0,0,1,6.66-2,51.61,51.61,0,0,1,6.66-.67c1.39-.09,2.53-.16,3.43-.2l.56-.47a24.4,24.4,0,0,0,5.33-6,32.42,32.42,0,0,0,2.66-5.33A17.11,17.11,0,0,1,292,220c-.79,1.73-1.33,2.67-1.33,2.67a11,11,0,0,0,3.33-3.33,11.76,11.76,0,0,0,1.33-3.33,19.41,19.41,0,0,0,.67-4.66,8.66,8.66,0,0,1,.66,2.66,11.36,11.36,0,0,1-.66,4.66,20.47,20.47,0,0,0,1.33-4.66c.52-3,.67-5.33.67-5.33l.66,2.67A46.85,46.85,0,0,0,300,202.7c.21-5.18,0-9.32,0-9.32l1.34,2.66c.66,1.33,0-5.33,0-5.33s-1.33-1.11-2.67-2c-1-.69-4-2.62-4.66-5.33-.31-1.2.23-3,1.33-6.66.86-2.82,1-2.63,1.33-4,.52-2,1.17-6.78-1.33-10.66a12.6,12.6,0,0,0-4-4,11.51,11.51,0,0,1,2.74,3,9,9,0,0,1,1.25,3,12.44,12.44,0,0,1,0,2.66l-2.66-3.33a14.67,14.67,0,0,1,1.33,3.33,10.57,10.57,0,0,1,0,4.66,21.44,21.44,0,0,0-1.33-2,10.12,10.12,0,0,0-2-2,10.41,10.41,0,0,1,2,4,8.51,8.51,0,0,1-.67,5.33,9.46,9.46,0,0,0-1.33-4.66,7.58,7.58,0,0,0-2.66-2.66,6.13,6.13,0,0,1,2,6,41.1,41.1,0,0,1-1.34,6,32.76,32.76,0,0,0-.66-4,11,11,0,0,0-1.33-3.33,6.23,6.23,0,0,1,.66,2c.18,1.1-.59,1-.66,4-.08,2.77.25,3.1,0,2.66l-1.34-6.66a14.66,14.66,0,0,0-.66,4c0,2.66.26.87,0,3.33a3.1,3.1,0,0,1-1.33,2l-.37-3.33-.3-2.67-.67,3.33-.53,1.86-.8,2.8-.33-6a50,50,0,0,1-1,5.33,12.46,12.46,0,0,1-2,3.33,23.49,23.49,0,0,1-.66-3.33,12.82,12.82,0,0,1,.66-5.33c.41-1.16.63-1.26,2.67-4.66,2.28-3.81,2.53-4.55,2.66-5.33a8.64,8.64,0,0,0-.67-4.66,11.22,11.22,0,0,1-.66,3.33,11.71,11.71,0,0,1-3.33,4.66,34.88,34.88,0,0,1-3.33,2.67,10,10,0,0,1,0-5.33,25.61,25.61,0,0,1,1.33-4.66,14.9,14.9,0,0,1,2-3.33v2a7,7,0,0,0,.66-.67,9.71,9.71,0,0,0,1.34-4.66l.66,2a22.37,22.37,0,0,0,.67-5.33,14.49,14.49,0,0,0-.67-5.33,11.68,11.68,0,0,0-4-5.33,12.12,12.12,0,0,0-4.66-2c-1.52-.38-2.86-.69-4,0-.43.25-.33.35-1.33,1.33-1.26,1.23-1.9,1.85-2.67,2a4.16,4.16,0,0,1-2.66-.67,10.79,10.79,0,0,1-2-1.33,4.56,4.56,0,0,0,.67,2.66c1.07,1.52,2.38,1.25,3.33,2.67.27.4.28.6.66,2.66a29.6,29.6,0,0,1,.67,5.33l-1.33-.67h-.79a3,3,0,0,0-2.48,1.26h0a.11.11,0,0,1-.13.05c-.31-.09-1.47-.42-2.58-.64-1.88-.37-3,.79-4,0l-.07-.07a2.4,2.4,0,0,0-3.19,0l-.07.06a9.36,9.36,0,0,1-1.33.66,18.2,18.2,0,0,0,0-2.66,3.94,3.94,0,0,1,0-1.33,5,5,0,0,1,.66-1.33c.5-.93.67-1.34.67-1.34l-1.33.67a9.46,9.46,0,0,1,1.33-2l.67-.66-2,.66s.41-.13,2-2a11.25,11.25,0,0,0,2-3.33,5,5,0,0,1-3.33,1.34,7.45,7.45,0,0,1-2.66-1.34c-2.05-1.29-2.27-1.7-3.33-2a5.43,5.43,0,0,0-2.66,0l1.33.66h-1.33c-1.47,0-2.45.84-4,2-3.83,2.87-3.9,2.25-4.66,3.33s-1.33,5.33-1.33,5.33a34.67,34.67,0,0,0,.67,6.66,20.48,20.48,0,0,0,1.33,3.33s.12-2.52.66-2.67,1.86,2.3,2.67,4.66c.24.71.74,2.29,1.33,8,.46,4.49.33,5.22,0,5.33-.64.22-1.92-1.86-2-2a10.81,10.81,0,0,1-1.33-3.33,4,4,0,0,0,0,1.34c.23,1.24.66,2.66.66,2.66s-1.33,0-2-2a10.47,10.47,0,0,1-.67-2.66v-2.66s-.63,1.23-.66,1.33a12.84,12.84,0,0,0-.67,2.66,15.11,15.11,0,0,1-1.33-3.33,27.91,27.91,0,0,1-.67-4s0,1.56,0,2.66c.05,2,0,2.66,0,2.66s-.66-.66-1.33-4a17.06,17.06,0,0,0-.67-2.67,14.71,14.71,0,0,0,1.34,7.33c.56,1.24.67,3,2.66,6,1.33,2,2,2,2,3.33a34.44,34.44,0,0,1,.66,6.66,17.93,17.93,0,0,1-2-3.33,24.66,24.66,0,0,1-1.34-4.66,11.07,11.07,0,0,0-.66,2.66,8.11,8.11,0,0,0,.66,3.33c.93,2.89,1.34,4,1.34,4a8.22,8.22,0,0,1-2.67-3.33,16.06,16.06,0,0,1-.66-3.33c-.43-2.86-.67-4-.67-4a38.34,38.34,0,0,0-.67,4c-.18,3.06.67,4,.67,4a7.92,7.92,0,0,1-2-2,10,10,0,0,1-1.33-4,54,54,0,0,1-.67-6.66,10.58,10.58,0,0,0-.66,4,44.75,44.75,0,0,0,.66,7.32s-1-1-1.33-1.33c-.64-.61-1.12-1.54-1.33-4.66a20.36,20.36,0,0,1,0-4c.25-2.73.8-4.62.67-4.66a22.52,22.52,0,0,0-1.34,2,13.33,13.33,0,0,0-.66,2l-.67,2a10,10,0,0,1-.66-2.67,12.19,12.19,0,0,1,0-5.32,18.78,18.78,0,0,1,.66-2,5.11,5.11,0,0,0-2,2,7.16,7.16,0,0,0-.67,3.32,3.85,3.85,0,0,1-.67-1.33c-.41-1.69.26-2.34.67-5.32.24-1.75,0-2,.67-3.33a4.21,4.21,0,0,1,1.33-1.34,5.62,5.62,0,0,0-2,.33,3.66,3.66,0,0,1-1.37.34l.66-1.33c.67-1.33.67-2,1.34-2.67a9.67,9.67,0,0,1,2-1.33,5.11,5.11,0,0,0-2,.67,7.91,7.91,0,0,0-2,1.33,33.3,33.3,0,0,1,1.33-3.33c.67-1.33,4-4.66,4-4.66s-3.81.82-5.32,2.66a20.92,20.92,0,0,0-4,8,50.84,50.84,0,0,0,0,6.66c0,1.84-1.27,2.77-2,4.66-.31.81.48,2.51.67,7.33.08,1.93-.67,3.72-.67,4.66,0,2.24.67,1.92.67,3.33,0,2.61-.93.62-4,5.33-1.23,1.88-3.39,5.47-4,6.66-1.88,3.64-1.68,3.82-3.33,6.66a28.74,28.74,0,0,0-3.33,7.32c-.93,2.89.15,4.17,0,9.32a57.71,57.71,0,0,1-1.33,10,117.13,117.13,0,0,1-2.66,12.65c-.21.84-2,9.33-2,9.33l1.33-6.66a73.52,73.52,0,0,0-.67,12c.08,2.43-.19,5.05,0,6,.64,3.12,1.54,4.62,2.67,7.32a72.88,72.88,0,0,0,4.66,10,37.73,37.73,0,0,0,5.33,6.66,26.67,26.67,0,0,0,5.32,4.66,24.57,24.57,0,0,0,7.33,3.33,45.14,45.14,0,0,1,5.32,2,29,29,0,0,1,3.33,1.33,11.15,11.15,0,0,1,4,4.66l-2.66-7.32s2.66,3.33,4,4,4.66,3.33,6,4,3.33,2,4,2,1.33-3.06,1.33-3.06v-3.6l.65,1.29.68,2s.5-1.48.67-2c.73-2.26,2.83-3.58,6.66-6a25.86,25.86,0,0,0,4-2.66,11.44,11.44,0,0,1,2.67-2c4,.67,12.65.67,21.31-.66,5.42-.84,9.43-2.83,16.64-6s11.51-5.05,14-8a12.87,12.87,0,0,1,4-3.33,13.62,13.62,0,0,1,4-1.33c3-.41,4.66-.66,6-1.33s0,0,1.33-1.33c.89-1.22.66-1,.87-1,.66,0,.73.6,1.8,1.66.66.67,2.41.65,2.66.67a7.45,7.45,0,0,0,2.67-.67c2.18-.76,2.48-1.75,2.66-2,.3-.43.17-.55.66-1.33.38-.59.68-.18.67-.67,0-.24-.08.25,0,0s.23-1,.47-1.07c1-.36,3.21,1.92,3.06,1.27,0-.14-.2-.15-.2-.2,0-.27.56.35,0-1.33-.57-1-.61-1.26-.53-1.33s-.34-.48.53,0c1.44.78,3,1.73,3,1.73h0S338.64,264.63,338,264.63ZM267.38,153.42c.26-.27,1,.41,2.67.67a4.23,4.23,0,0,0,2,0,4.81,4.81,0,0,0,2-1.33c.81-.77.77-1,1.34-1.33a2,2,0,0,1,2,0c.45.33.52.88.67,2a3,3,0,0,1,0,1.34c-.23.68-.82.56-1.33,1.33a5.68,5.68,0,0,0-.67,1.33l-.66-.67v1.34l-1.34-.67-.66,1.33-.67-1.33-.66,1.33-1.34-1.33.67,2a5,5,0,0,1-2.66-2,14.57,14.57,0,0,1-1.34-2C266.72,154.09,267.2,153.63,267.38,153.42Zm-17.31,27.31s1-.32,2-.67a7.68,7.68,0,0,0,2-1.33c1.43-1,1.5-1.2,2-1.33a5.53,5.53,0,0,1,2-.14h1.33c.66,0,1.09,0,1.34.14a12.54,12.54,0,0,1,2,1.33,5,5,0,0,0,2,1.33,8.28,8.28,0,0,0,2,0s-.5,1.05-1.33,1.2a3.56,3.56,0,0,1-2-.53c-.76-.36-.75-.41-1.33-.67a7.37,7.37,0,0,0-2-.67c-.44-.06-.37,0-2,0-1.08,0-1.05,0-1.33,0a9.52,9.52,0,0,0-2,.67,16,16,0,0,0-2,.67,6.59,6.59,0,0,1-1.33.66,5.72,5.72,0,0,1-1.33,0Zm12,2.66c.66.44.92.34,1.33.67a2.12,2.12,0,0,1,.66,1.33,4.22,4.22,0,0,0-.66-.67,3.12,3.12,0,0,0-1.33-.66l-.67-.14s.34.45.67.8a3.06,3.06,0,0,1,.66,2,6,6,0,0,1-.66-.67,4.65,4.65,0,0,0-.67-.66,5.45,5.45,0,0,0,0,.66,3.11,3.11,0,0,1,0,.67s-.28-.25-.66-.67a6.13,6.13,0,0,0-.67-.66,3.4,3.4,0,0,0-.67.66c-.55.68-.66.67-.66.67v-1.33a2.93,2.93,0,0,0-.67.66,3.94,3.94,0,0,1-.66.67,2.31,2.31,0,0,1,0-.67,3.19,3.19,0,0,1,.66-1.33l-1.33.67a8.3,8.3,0,0,1-2,.66,7.29,7.29,0,0,1,.67-.66,4.05,4.05,0,0,0,.66-.67,2.93,2.93,0,0,0-1.33,0,3.92,3.92,0,0,0-1.33.67,2.39,2.39,0,0,1,.67-1.33,2.92,2.92,0,0,1,1.33-.67,4.84,4.84,0,0,0-1.33,0,10.78,10.78,0,0,0-2.67.67,9.74,9.74,0,0,1,2-2,7.51,7.51,0,0,1,2.66-1.33,7.21,7.21,0,0,1,3.33,0,7.38,7.38,0,0,1,3.33,1.33,6.65,6.65,0,0,1,1.33,1.33,3.76,3.76,0,0,0-1.33-.67,3.57,3.57,0,0,0-1.33,0A5.82,5.82,0,0,0,262.06,183.39Zm-25.31-25.3v-1.34l-.66.67v-1.33h-.67s-.6-.36-.67-.67a1.81,1.81,0,0,1,0-.66,12.88,12.88,0,0,1,1-3.67,13.54,13.54,0,0,0,.67,1.33,4.88,4.88,0,0,0,2,2,13.08,13.08,0,0,0,3,.34c1.63.1,1.78.08,2,0a4.4,4.4,0,0,0,2-2,3.28,3.28,0,0,1,.67,2c-.13.8-.58,1-2,2.66a7.45,7.45,0,0,1-2.67,2v-2l-.66,1.33-.67-.66-.66.66-.67-1.33-.67.67c-.08,0,0-.67,0-.67Zm-22.64,34c0-1.11.08-2.78,0-4.67a6.66,6.66,0,0,1,.67-3.32c0-.67,1.6,3.62,4.66,6.65,2.68,2.66,4,2.28,6.66,5.33,1.44,1.64,2.66,3.33,2.66,3.33L227.43,196s1.13.94,3.33,2.67c1.63,1.27,1.71,1.12,2.66,2,1.63,1.49,2.67,2.67,2.67,2.67v-2a30.34,30.34,0,0,0,3.33,3.33c1.29,1.12,1.44.87,2.66,2,1.59,1.46,2.66,2.66,2.66,2.66v-2s1,.77,2.67,2c1,.79,1.13.69,2,1.33a15,15,0,0,1,3.33,3.33l-1.33-3.33a22.38,22.38,0,0,1,2,2,19.87,19.87,0,0,0,2,2v-1.33s.93.82,2,2,1.54,1.53,2,2a10.44,10.44,0,0,1,2.67,6,8.6,8.6,0,0,0,0-4,7.06,7.06,0,0,0-1.22-2.42c-.35-.46-.78-.91-.78-.91l2.66,2a2.21,2.21,0,0,0,.21-.69,2.67,2.67,0,0,0-.21-1.31l3.33,3.33s.87-1.78,1.33-2.67.83-1.21,1.34-2a17.52,17.52,0,0,1,2.66-2.67l1.33-1.33,2.67-2.66s-.48,1-.88,1.67-.66,1-.87,1.31c.21-.28.65-.56,1.08-1l1.33-1.34a2.79,2.79,0,0,0,.67-2v2.66a3.69,3.69,0,0,0,.66-.67,11.19,11.19,0,0,0,.67-1.33l.66-1.33.67,1.33a2.26,2.26,0,0,0,.67-.66,3,3,0,0,0,0-2l.66,1.33a2.58,2.58,0,0,0,.67-.67c.12-.19.92-1.32,1.33-2a14.72,14.72,0,0,1,1.33-2c.55-.65.62-.53,1.33-1.33s1-1.32,1.34-1.33c.59,0,1.08.87,1.33,1.33a7.08,7.08,0,0,1,.66,2.66,14.56,14.56,0,0,1-.66,4v-3.33a3.61,3.61,0,0,0-.67-1.34v4c0,.94-.66,2-.66,2.66v2l-.67-1.33a4.28,4.28,0,0,1,0-2,9.86,9.86,0,0,0-.67,2,13,13,0,0,1-.66,2L284,210a9.87,9.87,0,0,1,0,2.66,5.77,5.77,0,0,1-.66,2,4.84,4.84,0,0,0,0-2,5.3,5.3,0,0,0-.67-1.33,6.2,6.2,0,0,0-.67,2,11.75,11.75,0,0,0,0,1.33,3.43,3.43,0,0,1-.66-1.33,3.12,3.12,0,0,1,0-1.34,10.22,10.22,0,0,0-.67,2c-.39,1.69-.66,2.66-.66,2.66s-.58-.31-.67-.66a1.44,1.44,0,0,1,0-.67,2.47,2.47,0,0,0-.67.67,5,5,0,0,0-.66,2.66,1.93,1.93,0,0,1-.67-.66,2.05,2.05,0,0,1,0-1.34,3.09,3.09,0,0,0-.66,1.34c-.2.92.12.52,0,1.33a7.66,7.66,0,0,1-1.33,2.66,3.29,3.29,0,0,0,0-2,3.16,3.16,0,0,1-.29-1.34,4.63,4.63,0,0,0-1,1.34,10,10,0,0,0-1.33,2,6.21,6.21,0,0,0-.67,2.18c0,.29,0,.49,0,.49a2.37,2.37,0,0,1,0-.49c0-.71,0-2,0-2.18a13.21,13.21,0,0,0,0-2,3.8,3.8,0,0,0-1.34,2,8.6,8.6,0,0,0,0,2.67l-.66-2.67c.1-1.26,0-1.33,0-1.33a17.62,17.62,0,0,1-3.33,5.33c-1.68,2.05-2,2-2,2a26,26,0,0,1,0-2.67,25.4,25.4,0,0,1,1.33-4,14.11,14.11,0,0,0,.67-2,21.83,21.83,0,0,0-2.67,4,25.45,25.45,0,0,0-1.33,3.33,42.14,42.14,0,0,0-1.33,5.33,14.24,14.24,0,0,1-1.33-3.33,19.51,19.51,0,0,0-1.33-3.33,5.24,5.24,0,0,0-2.67-2s.67.67,1.34,3.33a6.08,6.08,0,0,0,1.22,2.55l.11.12-.11-.12c-.25-.27-1-1-1.89-1.88a9.62,9.62,0,0,0-4-2.66c-3.33-1.34-4-3.33-4-3.33v1.33a8.67,8.67,0,0,1-.67-.67c-1-1.15-1.33-1.33-2-2-.25-.24,0-.66,0-.66a1.64,1.64,0,0,0-.67.66,2,2,0,0,0,0,1.34,2.61,2.61,0,0,1-.67-1.34,4.92,4.92,0,0,1,0-1.33s-.14.06-.66.67a3.68,3.68,0,0,0-.67,1.33,19.18,19.18,0,0,0-.66-2,7,7,0,0,0-2-2V220s-1.07-1.68-1.33-2a12.49,12.49,0,0,1-1.34-2l-.66-1.33s-.08.09,0,1.33a6.47,6.47,0,0,1,0,1.33,14.57,14.57,0,0,1-1.33-1.33,5.18,5.18,0,0,1-1.34-2.66,12.54,12.54,0,0,1,0-1.34,2.16,2.16,0,0,0-.66.67,3.58,3.58,0,0,0,0,2.66s-.54-.86-1.33-2c-1.13-1.62-2-2.2-2-3.33,0-.32,0-.67,0-.67a3.21,3.21,0,0,0-.67,1.33,4.31,4.31,0,0,0-.05.91,2.37,2.37,0,0,1,.05.42s0-.16-.05-.42a4.08,4.08,0,0,0-.61-1.57c-.54-.81-1-.68-1.33-1.34a3.6,3.6,0,0,1,0-2.66,3.19,3.19,0,0,0-1.34,1.33,3.15,3.15,0,0,0,0,2,5.94,5.94,0,0,1-.66-.67,4.44,4.44,0,0,1-.67-1.33,6.73,6.73,0,0,1,0-3.33,3,3,0,0,0-1.33,1.33,4.15,4.15,0,0,0,0,2.67,4.15,4.15,0,0,1-1.33-2,7,7,0,0,1,0-3.33s-.62.59-.67.67a4.41,4.41,0,0,0-.66,2,5.58,5.58,0,0,1-.67-2,13,13,0,0,1,0-4,3.57,3.57,0,0,0-1.33,2,4.53,4.53,0,0,0,0,1.33s-.51-.93-.67-1.33a11.31,11.31,0,0,1-.66-2,3.49,3.49,0,0,1,.66-2.66,8.25,8.25,0,0,0-1.33,2,9.74,9.74,0,0,0-.66,2,17,17,0,0,1-.67-3.33,30.78,30.78,0,0,1,0-3.33,2.62,2.62,0,0,1,.67-1.33,2.52,2.52,0,0,0-1.34,1.33,9.2,9.2,0,0,0-.66,2A12.53,12.53,0,0,1,214.11,192.05Z" transform="translate(-138.13 -124.77)"/><path class="cls-5" d="M282.41,142.77l-10-8.65a28.23,28.23,0,0,1,5.33-4,19,19,0,0,1,4-2,13.55,13.55,0,0,1,4.66-.66c1.63.06,2.66.1,3.33.66,1.3,1.11.19,3.59-1.34,9.33a72.24,72.24,0,0,1-2.66,8.65L284,143.73a1.67,1.67,0,0,1-.29-.65l-.77-3.65,2.18,1.35-1.34-3.33,1.34,1.33-.67-2,2,1.33-.67-3.33s1,.84,1.33.67c.57-.26,0-3.33,0-3.33s-3.22,1.95-4,4c-.49,1.29,0,2-.67,2.67s-2.42-.3-2.66,0C279.27,139.38,282.41,142.77,282.41,142.77Z" transform="translate(-138.13 -124.77)"/><path class="cls-5" d="M232.76,135.23a20.27,20.27,0,0,0-4-2.66,45.28,45.28,0,0,0-5.33-2.67c-1.29-.48-2.41-.09-4,0-1.37.08-2.66,0-3.33.67s-.56,1.53-.66,3.33a15.79,15.79,0,0,0,2,8,1.37,1.37,0,0,0,.66.66c.62.26,1.1-.21,1.33,0s-.55,1.38-.66,3.33a3,3,0,0,0,0,.67,6.76,6.76,0,0,0,1.33,2.66s6.4-7,6-7.32c-.21-.16-2,1.33-2,1.33l.67-2-1.33,1.33v-2l-1.33,1.33.66-2s-1.54,1-2,.67,0-2,0-2-.53.72-.66.66,0-1.33,0-1.33-1,.27-1.33,0,0-1.9.66-2c.43-.06.64.64,1.33,1.34a15.53,15.53,0,0,0,4.67,3.33c.68.34.44,1.16.66,1.33C226.91,142.48,232.76,135.23,232.76,135.23Z" transform="translate(-138.13 -124.77)"/><path class="cls-6" d="M233.42,237.33" transform="translate(-138.13 -124.77)"/><path class="cls-7" d="M276.71,207.36v0Z" transform="translate(-138.13 -124.77)"/><path class="cls-8" d="M226.43,242.67h0Z" transform="translate(-138.13 -124.77)"/><path d="M234.42,146.43A6.84,6.84,0,0,1,237,141.9a11.57,11.57,0,0,1,2.25-1.35,9.09,9.09,0,0,1,2.5-.78l-2.11,1.46c-.68.49-1.4.94-2,1.45A14.31,14.31,0,0,0,234.42,146.43Z" transform="translate(-138.13 -124.77)"/><path d="M277.37,146.1c-1.55-1.21-3-2.41-4.54-3.5s-3.14-2.08-4.78-3.16a13.64,13.64,0,0,1,5.36,2.35A13.38,13.38,0,0,1,277.37,146.1Z" transform="translate(-138.13 -124.77)"/><path d="M210.45,269.62A13.74,13.74,0,0,1,213.11,257a26.4,26.4,0,0,0-2.18,6.15A25.58,25.58,0,0,0,210.45,269.62Z" transform="translate(-138.13 -124.77)"/><path d="M211.78,263a22.07,22.07,0,0,1,6.48-9.28,25.35,25.35,0,0,1,4.8-3.19,19.07,19.07,0,0,1,2.68-1.18c.93-.31,1.85-.55,2.77-.78,3.68-.92,7.35-1.69,11.05-2.5l2.74-.57a18.67,18.67,0,0,0,2.58-.79,34.49,34.49,0,0,0,5-2.36,33.22,33.22,0,0,0,4.53-3c1.34-1.19,2.85-2.53,4.22-3.7a44.54,44.54,0,0,1,4.47-3.64,25,25,0,0,1,5.16-2.68,49,49,0,0,1,5.47-1.74,28.9,28.9,0,0,1,5.68-.8c1,0,1.89-.07,2.86-.06s1.9.08,2.84.15c1.88.13,3.75.35,5.63.54-3.77,0-7.55-.31-11.24.28a30.87,30.87,0,0,0-5.44,1.11c-1.75.54-3.52,1.22-5.21,1.93-6.94,2.67-10.94,9.65-18,13.4a35.92,35.92,0,0,1-5.26,2.45,19.6,19.6,0,0,1-2.83.84c-.95.21-1.87.39-2.8.56-3.69.68-7.4,1.43-11.07,2.15A24,24,0,0,0,211.78,263Z" transform="translate(-138.13 -124.77)"/><path d="M211.78,198.37a22.25,22.25,0,0,0,4,8.15,18.51,18.51,0,0,0,1.48,1.71,9.6,9.6,0,0,0,.81.76,2.74,2.74,0,0,0,.39.3h-.06a.37.37,0,0,0-.39.36v.06s0,.06,0,0,0,0,0,0a2.29,2.29,0,0,0-.11-.23,13.14,13.14,0,0,1-1-2.17c-.21-.77-.38-1.54-.53-2.3.36.71.63,1.43,1,2.11a19.58,19.58,0,0,0,1.18,2l.17.27,0,.11a.8.8,0,0,1,0,.21.44.44,0,0,1-.1.26.45.45,0,0,1-.37.16l-.13,0-.14-.05a3.19,3.19,0,0,1-.56-.36,10.09,10.09,0,0,1-.93-.78,16.91,16.91,0,0,1-1.61-1.77,16.1,16.1,0,0,1-2.35-4.13A13.45,13.45,0,0,1,211.78,198.37Z" transform="translate(-138.13 -124.77)"/><path d="M256.4,139.11a1.25,1.25,0,0,0-.38.59c0,.17.06.26.17.39a2.31,2.31,0,0,0,1,.54,2.09,2.09,0,0,0,1.18-.15,9.12,9.12,0,0,0,1.32-.71,2.54,2.54,0,0,1-.92,1.38,2.15,2.15,0,0,1-3.27-.63,1,1,0,0,1,.05-1.06A1.1,1.1,0,0,1,256.4,139.11Z" transform="translate(-138.13 -124.77)"/><path d="M254.4,201.7c-1.53-.72-2.92-1.53-4.35-2.29s-2.86-1.49-4.31-2.37a13.16,13.16,0,0,1,8.66,4.66Z" transform="translate(-138.13 -124.77)"/><path d="M255.73,200.37c-.94-.31-1.84-.65-2.73-1l-2.65-1.17c-1.76-.78-3.53-1.54-5.27-2.45a25.78,25.78,0,0,1,5.57,1.76,23.8,23.8,0,0,1,2.61,1.34C254.11,199.29,254.93,199.81,255.73,200.37Z" transform="translate(-138.13 -124.77)"/><path d="M260.73,205.36a4.5,4.5,0,0,1,.9-2,5.32,5.32,0,0,1,1.7-1.4,10.2,10.2,0,0,1,4.05-1.3c-1.25.68-2.49,1.27-3.68,2a8,8,0,0,0-1.64,1.14A9.27,9.27,0,0,0,260.73,205.36Z" transform="translate(-138.13 -124.77)"/><path d="M266.72,196.71c-1.11,1.32-2.26,2.59-3.45,3.83a9.32,9.32,0,0,0-2.13,4.38c0,.09,0,.2-.05.28v.1a.33.33,0,0,0-.31-.3.33.33,0,0,0-.3.08c-.08.09-.05.07-.05.07h0v0l.24-.61a11,11,0,0,1,.58-1.2,9.66,9.66,0,0,1,1.63-2.08,9.56,9.56,0,0,1,4.5-2.53,11.52,11.52,0,0,0-4.08,2.92,10.56,10.56,0,0,0-1.95,3.16l-.22.6-.05.11,0,0s0,0-.07.09a.39.39,0,0,1-.65-.27,1.55,1.55,0,0,1,0-.23c0-.12,0-.23,0-.35a9,9,0,0,1,2.47-4.65C264.14,199,265.39,197.81,266.72,196.71Z" transform="translate(-138.13 -124.77)"/><path d="M297,229.67a14.26,14.26,0,0,0,3.22-.39,16.12,16.12,0,0,0,3-1.15c2-.92,3.85-2,5.76-3.12a19.16,19.16,0,0,1-5.44,3.8,12.14,12.14,0,0,1-3.2,1.05A8.51,8.51,0,0,1,297,229.67Z" transform="translate(-138.13 -124.77)"/><path d="M293.69,229a8.27,8.27,0,0,0-3.11,1.4,9.43,9.43,0,0,0-2.22,2.6,4.46,4.46,0,0,1,1.77-3.19A4.3,4.3,0,0,1,293.69,229Z" transform="translate(-138.13 -124.77)"/><path d="M291.69,234.33c-1.07,1-2.18,2-3.33,3-.56.48-1.16.93-1.69,1.4a9.15,9.15,0,0,0-1.38,1.58,10.07,10.07,0,0,0-1.06,1.81,3.28,3.28,0,0,0-.15.44c-.06.14,0,.27-.09.12s-.17,0-.11,0a.78.78,0,0,0,.19-.06l.51-.19a9.61,9.61,0,0,1,4.45-.7,14.72,14.72,0,0,0-4.13,1.41l-.51.26a2.58,2.58,0,0,1-.34.12.73.73,0,0,1-.64-.13.85.85,0,0,1-.25-.56,2.36,2.36,0,0,1,0-.39,3.62,3.62,0,0,1,.17-.61,9.44,9.44,0,0,1,1.13-2,9.17,9.17,0,0,1,1.58-1.72c.62-.48,1.22-.9,1.84-1.31Q289.75,235.44,291.69,234.33Z" transform="translate(-138.13 -124.77)"/><path d="M306.34,235a21.46,21.46,0,0,0,4.23-1.53,21.74,21.74,0,0,0,3.76-2.47,8.08,8.08,0,0,1-3.43,3.14A8.23,8.23,0,0,1,306.34,235Z" transform="translate(-138.13 -124.77)"/><path d="M301,246.32a20,20,0,0,1,3-2.23,8.43,8.43,0,0,1,3.59-1.26c1.28-.08,2.47-.08,3.7-.17s2.45-.2,3.69-.34a19.61,19.61,0,0,1-3.62.92c-1.23.21-2.51.25-3.7.34a9.67,9.67,0,0,0-3.4,1C303.17,245.11,302.13,245.76,301,246.32Z" transform="translate(-138.13 -124.77)"/><path d="M297,239a8.53,8.53,0,0,1,4.06-2.13,8.82,8.82,0,0,1,4.59.13,30,30,0,0,0-4.42.6A26.19,26.19,0,0,0,297,239Z" transform="translate(-138.13 -124.77)"/><path d="M289.69,239A7.43,7.43,0,0,1,292,235.5a7.58,7.58,0,0,1,3.73-1.83,27.46,27.46,0,0,0-3.24,2.4A24.8,24.8,0,0,0,289.69,239Z" transform="translate(-138.13 -124.77)"/><path d="M286.36,241.66a3.17,3.17,0,0,0,1.9,2,4,4,0,0,0,2.67-.32,4.12,4.12,0,0,0,1.16-.74,8.15,8.15,0,0,1,1.32-.8,7.67,7.67,0,0,1,2.94-.76,14.71,14.71,0,0,0-2.65,1.27,8.86,8.86,0,0,0-1.16.85,4.79,4.79,0,0,1-1.33.87,4.09,4.09,0,0,1-3.15.18A2.94,2.94,0,0,1,286.36,241.66Z" transform="translate(-138.13 -124.77)"/><path d="M293.69,247a5.78,5.78,0,0,0-4.11,1.59l-.43.4a1.06,1.06,0,0,1-.71.36.61.61,0,0,1-.51-.34,1.8,1.8,0,0,1-.11-.39,4.84,4.84,0,0,1,0-.66,7.35,7.35,0,0,1,.65-2.34,6.85,6.85,0,0,1,1.39-2,7.88,7.88,0,0,1,2-1.37,12.2,12.2,0,0,1,4.51-1.24,17.93,17.93,0,0,0-4.23,1.74,7,7,0,0,0-3,3.19,6.69,6.69,0,0,0-.62,2.1,2.2,2.2,0,0,0,0,.5,1.09,1.09,0,0,0,0,.17s0,0-.06,0a1.44,1.44,0,0,0,.28-.19l.46-.36a5.62,5.62,0,0,1,2.13-1.1A6,6,0,0,1,293.69,247Z" transform="translate(-138.13 -124.77)"/><path d="M290.36,247.65a3.76,3.76,0,0,1,1.06-.34,1.31,1.31,0,0,1,1.16.31,2,2,0,0,1,.34,1.15,1.19,1.19,0,0,0,.41.78,4.93,4.93,0,0,0,2,.44,6.91,6.91,0,0,0,2.08,0,4.89,4.89,0,0,0,1.91-.73,10.94,10.94,0,0,1,2-1.08,9.46,9.46,0,0,1,4.42-.53,12.55,12.55,0,0,0-4.19,1.06,13.42,13.42,0,0,0-1.82,1.15,5.53,5.53,0,0,1-2.16.87,7.44,7.44,0,0,1-2.31,0c-.37-.07-.73-.12-1.1-.2A2.22,2.22,0,0,1,293,250a1.74,1.74,0,0,1-.5-1.16,2,2,0,0,0-.15-1,1,1,0,0,0-.86-.34A5,5,0,0,0,290.36,247.65Z" transform="translate(-138.13 -124.77)"/><path d="M293.69,245.65a4.39,4.39,0,0,1,4.66-2c-.84.36-1.6.61-2.36.94S294.52,245.29,293.69,245.65Z" transform="translate(-138.13 -124.77)"/><path d="M296.35,243a3,3,0,0,1,4-2,13.92,13.92,0,0,0-2.11.78A12,12,0,0,0,296.35,243Z" transform="translate(-138.13 -124.77)"/><path d="M323.65,273.62a3,3,0,0,0,.57-1.55,2.82,2.82,0,0,0-.07-.82l-.1-.41a1.13,1.13,0,0,1,0-.54.45.45,0,0,1,.35-.29.66.66,0,0,1,.33,0,2.1,2.1,0,0,1,.45.2c.27.16.5.33.74.5a5.59,5.59,0,0,1,.68.61c.2.2.43.53.52.6s-.24-.08-.28,0,0,0,0,0a1.13,1.13,0,0,0,.06-.3,3.05,3.05,0,0,0,0-.74,2.93,2.93,0,0,0-.5-1.37,10.74,10.74,0,0,0-1.21-1.05,8.25,8.25,0,0,1-1.26-1.31c-.4-.52-.6-1.09-.89-1.44a5.49,5.49,0,0,0-.53-.55,3,3,0,0,0-.62-.39c-1-.47-2.09-.93-3.09-1.47a17.16,17.16,0,0,1-3-1.84,5.58,5.58,0,0,1-1.47-3.15,5.79,5.79,0,0,0,1.79,2.77,16,16,0,0,0,3,1.52l3.17,1.31a3.19,3.19,0,0,1,.83.52,4.71,4.71,0,0,1,.67.67c.43.53.62,1.07.93,1.46a7.06,7.06,0,0,0,1.1,1.16,8.66,8.66,0,0,1,1.33,1.24,3.69,3.69,0,0,1,.61,1.83,3.53,3.53,0,0,1,0,1,2.54,2.54,0,0,1-.17.51.85.85,0,0,1-.26.31.53.53,0,0,1-.37.11.64.64,0,0,1-.3-.14,2.11,2.11,0,0,1-.32-.41,3.71,3.71,0,0,0-.23-.32,4.38,4.38,0,0,0-.56-.58,7.52,7.52,0,0,0-.64-.51,1.29,1.29,0,0,0-.31-.18c-.13,0-.09,0-.06-.07a2.89,2.89,0,0,0,0,.73,3.4,3.4,0,0,1,0,.9A2.82,2.82,0,0,1,323.65,273.62Z" transform="translate(-138.13 -124.77)"/><path d="M332.31,268.29a18.69,18.69,0,0,0-1.17-2.1,21.52,21.52,0,0,0-1.49-1.89,3.53,3.53,0,0,1,2.66,4Z" transform="translate(-138.13 -124.77)"/><path d="M303,266.29a2,2,0,0,1,1.33-3.32A4.54,4.54,0,0,0,303,266.29Z" transform="translate(-138.13 -124.77)"/><path d="M303,263a8.46,8.46,0,0,1-.75-1.33q-.28-.67-.63-1.32c-.42-.87-.89-1.72-1.28-2.68A6.09,6.09,0,0,1,302.3,260a5.33,5.33,0,0,1,.51,1.45A8.78,8.78,0,0,1,303,263Z" transform="translate(-138.13 -124.77)"/><path d="M322.32,253a7.79,7.79,0,0,0,2,2.56,8,8,0,0,0,1.38.85,6.69,6.69,0,0,0,1.53.48,19.25,19.25,0,0,1,3.21,1.17,27.32,27.32,0,0,1,3,1.58c1,.64,1.86,1.27,2.76,2a10.94,10.94,0,0,1,1.26,1.2,10.79,10.79,0,0,1,1,1.42,19,19,0,0,1,2.57,6.25,27.67,27.67,0,0,0-3.19-5.83,9.75,9.75,0,0,0-2.23-2.3c-.86-.66-1.8-1.31-2.71-1.9a27.68,27.68,0,0,0-2.9-1.56,23.73,23.73,0,0,0-3-1.26l-.79-.29a3.85,3.85,0,0,1-.81-.41,9.08,9.08,0,0,1-1.39-1A7.13,7.13,0,0,1,322.32,253Z" transform="translate(-138.13 -124.77)"/><path d="M336.31,265.63a31.1,31.1,0,0,1-2-4,4.06,4.06,0,0,1,2,4Z" transform="translate(-138.13 -124.77)"/><path d="M276.37,227.67a15.49,15.49,0,0,0,5.61-6.16,28.3,28.3,0,0,0,1.65-3.87,4.36,4.36,0,0,1,.21-.52,1.05,1.05,0,0,1,.2-.33l.1-.07a.3.3,0,0,1,.18-.05.4.4,0,0,1,.35.15.66.66,0,0,1,.13.26,4.75,4.75,0,0,1,.08,1.16c0,.72-.05,1.43-.1,2.15l-.74-.3a34.43,34.43,0,0,0,2.36-3.53,20.4,20.4,0,0,0,1.68-3.86,26,26,0,0,0,.94-4.13l.08-.53.06-.28a1.12,1.12,0,0,1,0-.21l0-.08a.51.51,0,0,1,.79-.14.66.66,0,0,1,.14.21l0,.07a.7.7,0,0,0,0,.13c0,.43,0,.76,0,1.13l-.05,2.17-.83-.34a9.48,9.48,0,0,0,.79-1.3c.24-.47.47-1,.69-1.46.43-1,.83-2,1.25-3a51.21,51.21,0,0,0,2.17-6.16,42.5,42.5,0,0,0,1.15-6.45,55.27,55.27,0,0,0,.3-6.57,42.34,42.34,0,0,1-.77,13.18,41.24,41.24,0,0,1-2,6.32c-.4,1-.79,2.05-1.22,3.08-.22.51-.45,1-.7,1.53a9.06,9.06,0,0,1-.92,1.52l-.84,1.08,0-1.42,0-2.14c0-.35,0-.74,0-1h0v0a.58.58,0,0,0,.14.2.48.48,0,0,0,.3.12.47.47,0,0,0,.45-.24l0,0c0-.05,0,0,0,0l0,.25-.09.53a27.62,27.62,0,0,1-1,4.27,21.78,21.78,0,0,1-1.8,4,34.38,34.38,0,0,1-2.49,3.6l-.9,1.14.16-1.44c.08-.7.15-1.4.18-2.09a5.91,5.91,0,0,0,0-1s0-.06,0,0a.28.28,0,0,0,.24.1l.12,0,0,0s0,.07-.07.13a4,4,0,0,0-.2.46,31,31,0,0,1-1.82,3.88A15.17,15.17,0,0,1,276.37,227.67Z" transform="translate(-138.13 -124.77)"/><path d="M243.74,233a36,36,0,0,0-4.46-6.91,38.93,38.93,0,0,0-5.82-5.73l-3.22-2.61a23,23,0,0,0-3.29-2.37,29.88,29.88,0,0,1-3.69-1.95,11.14,11.14,0,0,1-2.82-3.07,12.1,12.1,0,0,0,3.1,2.66,30.07,30.07,0,0,0,3.76,1.67,19.4,19.4,0,0,1,3.53,2.32l3.26,2.57a31.32,31.32,0,0,1,5.8,6,31,31,0,0,1,2.23,3.54A26.28,26.28,0,0,1,243.74,233Z" transform="translate(-138.13 -124.77)"/><path d="M239.75,237q2.3,1.59,4.47,3.33c.74.56,1.43,1.19,2.14,1.77.35.3.69.6,1,.86l.25.18.09.05h0c-.05,0,0,0-.15,0a.45.45,0,0,0-.19.11.4.4,0,0,0-.13.19.57.57,0,0,0,0,.12v0s0,0,0-.07l-.14-.27a39.23,39.23,0,0,1-2.45-5,19.39,19.39,0,0,0-2.91-4.62,13.53,13.53,0,0,1,3.62,4.28c.82,1.68,1.68,3.24,2.62,4.87l.17.35a1,1,0,0,1,.08.26l0,.11a.71.71,0,0,1,0,.2.6.6,0,0,1-.17.28.61.61,0,0,1-.59.11l-.15-.06-.21-.11c-.11-.08-.22-.15-.31-.23-.39-.31-.74-.61-1.08-.93l-2-1.9Q241.67,239,239.75,237Z" transform="translate(-138.13 -124.77)"/><path d="M260.39,231.67c-.5-1.3-.94-2.53-1.5-3.74s-1.19-2.36-1.83-3.59a8.79,8.79,0,0,1,2.51,3.28A8.61,8.61,0,0,1,260.39,231.67Z" transform="translate(-138.13 -124.77)"/><path d="M257.06,231.67a17.43,17.43,0,0,1-2.93-2.4,16.54,16.54,0,0,1-2.39-2.93,19.28,19.28,0,0,1,5.32,5.33Z" transform="translate(-138.13 -124.77)"/><path d="M255.07,227.67c-1.18-.63-2.24-1.32-3.35-2s-2.2-1.29-3.31-2a10,10,0,0,1,3.7,1.37A10.16,10.16,0,0,1,255.07,227.67Z" transform="translate(-138.13 -124.77)"/><path d="M265.72,217.68a9.33,9.33,0,0,1,2.34-4.56,9.71,9.71,0,0,1,4.32-2.76,25.37,25.37,0,0,0-3.77,3.27A22,22,0,0,0,265.72,217.68Z" transform="translate(-138.13 -124.77)"/><path d="M223.77,191.71A20.06,20.06,0,0,1,219.7,188a26.61,26.61,0,0,1-3-4.64l-.62-1.21c-.1-.2-.21-.4-.31-.56a.52.52,0,0,0-.08-.11l0,0s0,0,0,0a.25.25,0,0,0,.19,0c.15,0,.15-.13.15-.11a2.31,2.31,0,0,0-.05.5c0,.21,0,.43,0,.65,0,.44.08.89.13,1.34s.09.9.13,1.37a2.49,2.49,0,0,1,0,.4.79.79,0,0,1,0,.21.4.4,0,0,1-.06.12.51.51,0,0,1-.38.24.52.52,0,0,1-.38-.13.53.53,0,0,1-.11-.13v0a1.64,1.64,0,0,1-.1-.28l-.14-.69a20.41,20.41,0,0,0-.69-2.58,17,17,0,0,0-1-2.46,9.49,9.49,0,0,1-.56-1.33,7.27,7.27,0,0,1-.26-1.44,8.66,8.66,0,0,1,0-1.44c0-.24,0-.47.07-.7l.05-.34,0-.14h0v0a.69.69,0,0,0,.06.12.37.37,0,0,0,.26.17.43.43,0,0,0,.37-.11c.11-.15,0,0,0,0l0,.14-.09.31-.18.66-.37,1.33c-.07.22-.14.44-.22.67a2.41,2.41,0,0,1-.36.72.51.51,0,0,1-.15.13.42.42,0,0,1-.35.05c-.28-.12-.25-.21-.33-.3a2.88,2.88,0,0,1-.12-.4,6.37,6.37,0,0,1-.1-.71c-.1-.93-.12-1.85-.13-2.76,0-1.83,0-3.65.13-5.48.12,1.82.19,3.65.35,5.46.07.9.14,1.81.27,2.69,0,.22.08.44.13.64a1.86,1.86,0,0,0,.08.25s.07,0-.1-.06-.25.08-.22,0a5,5,0,0,0,.38-1.15l.3-1.32.15-.67.09-.35.06-.18a.73.73,0,0,1,.18-.32.45.45,0,0,1,.7.07.36.36,0,0,1,.07.16v.07c0,.12,0,.11,0,.17l0,.19,0,.34c0,.23,0,.44-.05.66a6.93,6.93,0,0,0,0,1.29,5.91,5.91,0,0,0,.76,2.42,18.37,18.37,0,0,1,1.08,2.59,21,21,0,0,1,.7,2.7l.13.65s0,.1,0,.05h0s0-.07-.09-.11a.43.43,0,0,0-.35-.1.44.44,0,0,0-.35.21c0,.1,0,.05,0,.09s0,0,0,0,0-.18,0-.29l-.11-1.35c0-.45-.08-.91-.09-1.38,0-.24,0-.47,0-.72a2.63,2.63,0,0,1,.16-.85.62.62,0,0,1,.38-.35.84.84,0,0,1,.35,0c.13,0,.12.07.19.11a.82.82,0,0,1,.19.2,1.11,1.11,0,0,1,.12.18,5.82,5.82,0,0,1,.34.65l.56,1.24A24.2,24.2,0,0,0,223.77,191.71Z" transform="translate(-138.13 -124.77)"/><path d="M278.37,194.38a72.41,72.41,0,0,0,7.47-4.4,12.47,12.47,0,0,0,3.14-2.76,11.39,11.39,0,0,0,1.83-3.71l.3-1,.06-.17a1,1,0,0,1,.07-.15.61.61,0,0,1,.45-.25.32.32,0,0,1,.14,0,.57.57,0,0,1,.35.35v0a.84.84,0,0,1,0,.21v.1l0,.15-.13.55c-.17.72-.34,1.42-.49,2.1,0,.18-.07.35-.09.51s0,.16,0,.22v.06s.08-.11-.28-.27a.46.46,0,0,0-.21,0l-.06,0,0,0,0-.05a1.4,1.4,0,0,0,.13-.18c.1-.14.19-.28.28-.43.36-.61.7-1.24,1.05-1.88l4-7.72q-1.49,4.1-3.3,8.06c-.31.67-.62,1.33-1,2-.09.16-.19.32-.3.49a3.1,3.1,0,0,1-.18.26.92.92,0,0,1-.14.15l-.13.1-.12,0a.58.58,0,0,1-.27,0,.56.56,0,0,1-.36-.3.71.71,0,0,1-.05-.18,1,1,0,0,1,0-.22c0-.12,0-.22,0-.32s.05-.38.08-.57c.14-.73.32-1.43.47-2.14l.11-.51,0-.11v0s0,0,0,.06v0a.4.4,0,0,0,.11.2.41.41,0,0,0,.21.12l.12,0c.19.05.44-.22.41-.21s0,0,0,0l0,.09-.29,1.05a10.87,10.87,0,0,1-5.52,6.83c-1.27.73-2.53,1.43-3.84,2.09A37.26,37.26,0,0,1,278.37,194.38Z" transform="translate(-138.13 -124.77)"/><path d="M236.42,185.05c-.71-.91-1.31-1.81-2-2.68s-1.35-1.71-2-2.64a7.44,7.44,0,0,1,4,5.32Z" transform="translate(-138.13 -124.77)"/><path d="M231.76,181.06a13.48,13.48,0,0,1-4-9.32c.58,1.63,1.11,3.21,1.78,4.75S231,179.52,231.76,181.06Z" transform="translate(-138.13 -124.77)"/><path d="M273.71,182.39c.82-1,1.64-1.95,2.4-2.94s1.47-2,2.26-3a8.43,8.43,0,0,1-1.66,3.51A8.58,8.58,0,0,1,273.71,182.39Z" transform="translate(-138.13 -124.77)"/><path d="M279,177.73a19,19,0,0,1,.77-2.2c.31-.71.58-1.43.85-2.15.56-1.43,1.07-2.86,1.71-4.31a14.63,14.63,0,0,1-1,4.58,13.35,13.35,0,0,1-1,2.12A18.49,18.49,0,0,1,279,177.73Z" transform="translate(-138.13 -124.77)"/><path d="M256.4,192.38a2.52,2.52,0,0,1,2.66,0,2.32,2.32,0,0,1-1.33.37A2.38,2.38,0,0,1,256.4,192.38Z" transform="translate(-138.13 -124.77)"/><path d="M253.73,190.38a22.28,22.28,0,0,0,3.67.34,23.4,23.4,0,0,0,3.66-.34,6.71,6.71,0,0,1-7.33,0Z" transform="translate(-138.13 -124.77)"/><path d="M247.74,183.72A15.41,15.41,0,0,0,252,188a9.53,9.53,0,0,0,5.63,1.61,10.08,10.08,0,0,0,5.56-1.9,12.16,12.16,0,0,0,3.82-4.66,10.47,10.47,0,0,1-3.47,5.11,9.76,9.76,0,0,1-5.88,2.2,9.43,9.43,0,0,1-6-1.89,15.49,15.49,0,0,1-2.29-2.14A12.29,12.29,0,0,1,247.74,183.72Z" transform="translate(-138.13 -124.77)"/><path d="M248.14,169.76a.75.75,0,0,0,0-1.5.75.75,0,0,0,0,1.5Z" transform="translate(-138.13 -124.77)"/><path d="M252.18,171.84a.75.75,0,0,0,0-1.5.75.75,0,0,0,0,1.5Z" transform="translate(-138.13 -124.77)"/><path d="M248.92,174.06a.75.75,0,0,0,0-1.5.75.75,0,0,0,0,1.5Z" transform="translate(-138.13 -124.77)"/><path d="M263.64,171.52a.75.75,0,0,0,0-1.5.75.75,0,0,0,0,1.5Z" transform="translate(-138.13 -124.77)"/><path d="M266.83,168.85a.75.75,0,0,0,0-1.5.75.75,0,0,0,0,1.5Z" transform="translate(-138.13 -124.77)"/><path d="M265.92,174.06a.75.75,0,0,0,0-1.5.75.75,0,0,0,0,1.5Z" transform="translate(-138.13 -124.77)"/><path d="M245.08,149.1a4.37,4.37,0,0,0-1.69-1.62,4.6,4.6,0,0,0-2.31-.38,2,2,0,0,1,1.25-.72,2.41,2.41,0,0,1,1.51.2,2.45,2.45,0,0,1,1.08,1.08A2.07,2.07,0,0,1,245.08,149.1Z" transform="translate(-138.13 -124.77)"/><path d="M267.05,149.1a2,2,0,0,1,.16-1.44,2.45,2.45,0,0,1,1.08-1.08,2.41,2.41,0,0,1,1.51-.2,2,2,0,0,1,1.25.72,4.6,4.6,0,0,0-2.31.38A4.3,4.3,0,0,0,267.05,149.1Z" transform="translate(-138.13 -124.77)"/><path d="M267.72,151.09c0-.14-.62-.24.66-1.33,2.16-1.84,2.42-1.94,2.67-2,1.26-.3,3,.25,3.33,1.34.28.92-.67,2-.67,2a7.17,7.17,0,0,1-2.66.67C269.4,151.88,267.79,151.58,267.72,151.09Z" transform="translate(-138.13 -124.77)"/><path d="M245,151.45c0-.14.62-.24-.66-1.33-2.16-1.84-2.41-1.94-2.67-2-1.26-.3-3,.25-3.33,1.34-.28.92.67,2,.67,2a7.17,7.17,0,0,0,2.66.67C243.29,152.24,244.9,151.94,245,151.45Z" transform="translate(-138.13 -124.77)"/><path class="cls-9" d="M240.36,150.5a.75.75,0,0,0,0-1.5.75.75,0,0,0,0,1.5Z" transform="translate(-138.13 -124.77)"/><path class="cls-9" d="M270.32,150.5a.75.75,0,0,0,0-1.5.75.75,0,0,0,0,1.5Z" transform="translate(-138.13 -124.77)"/><path d="M241.41,153.42c.7-.34,1.37-.62,2-.95s1.29-.69,2-1a4.78,4.78,0,0,1-4,2Z" transform="translate(-138.13 -124.77)"/><path d="M236.42,149.76c.22.15.41.35.59.45s.09,0,0,0-.1,0-.09,0a.84.84,0,0,0,0-.29,7.92,7.92,0,0,1,.11-1.5,3.14,3.14,0,0,1,.39,1.51,1.3,1.3,0,0,1-.08.45.39.39,0,0,1-.34.26.35.35,0,0,1-.29-.15A1.49,1.49,0,0,1,236.42,149.76Z" transform="translate(-138.13 -124.77)"/><path d="M267.05,151.09a7.55,7.55,0,0,0,1.83,1.33,8.21,8.21,0,0,0,2.17.67,3.26,3.26,0,0,1-2.39-.22A3.19,3.19,0,0,1,267.05,151.09Z" transform="translate(-138.13 -124.77)"/><path d="M239.08,167.74a10,10,0,0,1,4-9.32,23.19,23.19,0,0,0-2.58,4.41A22.07,22.07,0,0,0,239.08,167.74Z" transform="translate(-138.13 -124.77)"/><path d="M239.75,161.75a1.35,1.35,0,0,1-1,.31,1.32,1.32,0,0,1-1-.49,3.53,3.53,0,0,1-.52-.85,2.48,2.48,0,0,1-.2-1c.19.27.36.54.54.78s.37.5.56.72a1.38,1.38,0,0,0,.66.44A2.39,2.39,0,0,0,239.75,161.75Z" transform="translate(-138.13 -124.77)"/><path d="M237.09,161.75a8.33,8.33,0,0,1-2.53-2.27,8.42,8.42,0,0,1-1.47-3.06c.31.48.6,1,.91,1.41s.63.91,1,1.35C235.61,160.07,236.34,160.89,237.09,161.75Z" transform="translate(-138.13 -124.77)"/><path d="M273,167.74c-.14-1.39-.24-2.71-.47-4s-.54-2.6-.86-4a9.13,9.13,0,0,1,1.33,8Z" transform="translate(-138.13 -124.77)"/><path d="M278.37,155.09c-.12.69-.3,1.38-.49,2.07a12.93,12.93,0,0,1-.85,2,13.29,13.29,0,0,1-1.18,1.77,10.66,10.66,0,0,1-1.47,1.53c.79-1.17,1.55-2.32,2.21-3.54.33-.61.64-1.23.94-1.86S278.05,155.73,278.37,155.09Z" transform="translate(-138.13 -124.77)"/><path d="M275,159.75a2.6,2.6,0,0,1-.8,1.86,2.78,2.78,0,0,1-.86.58,2.35,2.35,0,0,1-1,.22,9.51,9.51,0,0,0,1.51-1.15A7.79,7.79,0,0,0,275,159.75Z" transform="translate(-138.13 -124.77)"/><path d="M255.07,180.39a5.34,5.34,0,0,1,6,0c-.51-.12-1-.24-1.51-.31a9.26,9.26,0,0,0-1.49-.11A11.47,11.47,0,0,0,255.07,180.39Z" transform="translate(-138.13 -124.77)"/><path class="cls-5" d="M244.41,163.08a11,11,0,0,0-.67,2,13.42,13.42,0,0,0-.46,3,18.28,18.28,0,0,0,0,2.67,14.94,14.94,0,0,0,.8,3.33,8.85,8.85,0,0,0,1.33,2.66,3.89,3.89,0,0,0,1.33,1.33c1,.51,2,.28,3.33,0a10,10,0,0,0,2-.66c1.3-.6,2.26-1,2.66-2a12.06,12.06,0,0,0,.14-2.66l0-.81a2.18,2.18,0,0,0-1.87-2.09l-.23,0a3.55,3.55,0,0,1-2-1.07,8.36,8.36,0,0,1-2-2.66,5.6,5.6,0,0,1-.67-4,4.85,4.85,0,0,1,2-2.66,2.85,2.85,0,0,1,2-.67,2.73,2.73,0,0,1,.89.36,2.14,2.14,0,0,0,1.13.31h4.67a2.09,2.09,0,0,0,1.07-.28,4.08,4.08,0,0,1,.9-.39,5.43,5.43,0,0,1,4.66,1.33,3.94,3.94,0,0,1,.66,2.67,7.64,7.64,0,0,1-.66,2.66,9.12,9.12,0,0,1-1.34,2.66,4,4,0,0,1-1.33,1.34,2.73,2.73,0,0,1-.8.28,2.27,2.27,0,0,0-1.86,2.19v2.85c0,.58.6.8,1.33,1.33a7.9,7.9,0,0,0,2.66,1.34c1.28.34,2.88.81,4,0,.58-.43.83-1.18,1.33-2.67a11.75,11.75,0,0,0,.67-2.66c.09-.75.22-2.7.26-3.21v-.24c0-.42-.09-1.8-.13-2.54a11.49,11.49,0,0,0-2.13-6,8.62,8.62,0,0,1,2.66,3.33,11.82,11.82,0,0,1,1,5.33,26,26,0,0,1-.6,4.66c-.24,1.15-.53,2-.73,2.66a9.15,9.15,0,0,1-1.6,3.21,2.2,2.2,0,0,1-1.7.79h-1.42a2.15,2.15,0,0,1-.56-.07,9.32,9.32,0,0,1-1.71-.6,9.47,9.47,0,0,1-2.1-1.44,2.2,2.2,0,0,0-1.47-.55H256.7a2.18,2.18,0,0,0-1.19.35c-.37.23-.89.58-1.44,1-.84.61-3.33,2-3.33,2a6.84,6.84,0,0,1-2,.66,4.33,4.33,0,0,1-1.63-.49,2,2,0,0,1-.63-.44l-.4-.4s-.34-.12-2.14-2.66a5.93,5.93,0,0,1-1.19-2,12,12,0,0,1-.67-4.66,12.39,12.39,0,0,1,.67-4.66A11.26,11.26,0,0,1,244.41,163.08Z" transform="translate(-138.13 -124.77)"/><path class="cls-9" d="M252.4,160.42a9.62,9.62,0,0,0,8.66,0,5.63,5.63,0,0,1-8.66,0Z" transform="translate(-138.13 -124.77)"/><path class="cls-9" d="M251.07,165.08a1.78,1.78,0,0,1-.85-.88,2,2,0,0,1-.05-1.33,1.48,1.48,0,0,1,.39-.66A1.08,1.08,0,0,1,251,162a.93.93,0,0,1,.55,0,7.32,7.32,0,0,1,1.08.64q.46.31.93.6a4.59,4.59,0,0,1,1,.75,2.15,2.15,0,0,1-.17,2.44,2.42,2.42,0,0,0-.42-1.92c-.15-.11-.56-.28-.9-.45s-.69-.38-1-.59-.68-.49-.85-.58,0,0,0,0a.12.12,0,0,0-.07,0,.86.86,0,0,0-.23.28A1.81,1.81,0,0,0,251.07,165.08Z" transform="translate(-138.13 -124.77)"/><path class="cls-9" d="M263.27,165.08a1.81,1.81,0,0,0,.17-1.93.86.86,0,0,0-.23-.28.12.12,0,0,0-.07,0s0,0,0,0-.55.38-.85.58-.67.41-1,.59-.75.34-.9.45a2.42,2.42,0,0,0-.42,1.92,2.15,2.15,0,0,1-.17-2.44,4.59,4.59,0,0,1,1-.75q.46-.28.93-.6a7.32,7.32,0,0,1,1.08-.64.93.93,0,0,1,.55,0,1.08,1.08,0,0,1,.42.24,1.48,1.48,0,0,1,.39.66,2,2,0,0,1-.05,1.33A1.78,1.78,0,0,1,263.27,165.08Z" transform="translate(-138.13 -124.77)"/><path class="cls-9" d="M252.07,167.41a2.13,2.13,0,0,1,.53-.19c.16,0,.31-.1.46-.15.32-.1.61-.22,1-.33a1.31,1.31,0,0,1-.84.8,1.13,1.13,0,0,1-.6.06A1.77,1.77,0,0,1,252.07,167.41Z" transform="translate(-138.13 -124.77)"/><path class="cls-9" d="M262.06,167.41a1.82,1.82,0,0,1-.57.19,1.08,1.08,0,0,1-.59-.06,1.29,1.29,0,0,1-.84-.8c.4.11.69.23,1,.33.15.05.31.11.47.15A2.45,2.45,0,0,1,262.06,167.41Z" transform="translate(-138.13 -124.77)"/><path class="cls-9" d="M257.8,165.08c.23,1.33.39,2.66.53,4a7.94,7.94,0,0,1,.15,2,5,5,0,0,1-.68,2h-.15a5.09,5.09,0,0,1-.67-2,7.5,7.5,0,0,1,.15-2c.14-1.33.29-2.66.52-4Z" transform="translate(-138.13 -124.77)"/><path class="cls-9" d="M256.4,176.4a1.05,1.05,0,0,1,.41-.83,1.45,1.45,0,0,1,.92-.34,1.51,1.51,0,0,1,.91.33,1.07,1.07,0,0,1,.42.84,6.72,6.72,0,0,0-.76-.14l-.57,0A5.6,5.6,0,0,0,256.4,176.4Z" transform="translate(-138.13 -124.77)"/><path class="cls-9" d="M238.08,151.43a8.87,8.87,0,0,1,1.35.44,5.55,5.55,0,0,0,1.26.38,8.34,8.34,0,0,0,1.34.13,13.13,13.13,0,0,0,1.38-.09,4.87,4.87,0,0,1-1.36.41,5,5,0,0,1-1.44,0,3.33,3.33,0,0,1-1.37-.5A10.91,10.91,0,0,1,238.08,151.43Z" transform="translate(-138.13 -124.77)"/><path class="cls-9" d="M244.41,149.1a4.05,4.05,0,0,0-1.13-1,3.26,3.26,0,0,0-1.35-.41,4.39,4.39,0,0,0-1.44.15,6.77,6.77,0,0,0-1.41.58A3.55,3.55,0,0,1,242,147.2a2.87,2.87,0,0,1,1.54.59A2.72,2.72,0,0,1,244.41,149.1Z" transform="translate(-138.13 -124.77)"/><path class="cls-9" d="M267.05,149.76a3.44,3.44,0,0,1,.88-1.59,3.85,3.85,0,0,1,1.58-1,3.9,3.9,0,0,1,3.53.59,6.84,6.84,0,0,0-3.29.13A6,6,0,0,0,267.05,149.76Z" transform="translate(-138.13 -124.77)"/><path class="cls-9" d="M268.38,151.76a6.37,6.37,0,0,0,2.32.4,10.44,10.44,0,0,0,2.34-.4,3,3,0,0,1-2.33,1.15A2.66,2.66,0,0,1,268.38,151.76Z" transform="translate(-138.13 -124.77)"/><path d="M296.35,250.31l-.59,1.36c-.11.22-.23.44-.35.65a2.3,2.3,0,0,0-.28.59s0,0,0,0l.13,0a2.26,2.26,0,0,0,.33-.13c.23-.1.45-.2.69-.29a6.11,6.11,0,0,1,1.47-.38,6.28,6.28,0,0,1,3,.46,6.15,6.15,0,0,1,1.36.77c.42.35.73.72,1.09,1a6.56,6.56,0,0,0,5.31.7,24.43,24.43,0,0,0,5.29-2.28,23.29,23.29,0,0,1,2.73-1.27,21.66,21.66,0,0,1,2.86-.87,8.17,8.17,0,0,0,2.43-1.33,17.52,17.52,0,0,0,2.1-1.95,11.2,11.2,0,0,1,1.09-1.09l.21-.14a.59.59,0,0,1,.86.52,3.44,3.44,0,0,1-.08.83c-.05.25-.11.49-.14.7v.1h0a.16.16,0,0,0-.08-.1c-.05-.06-.22,0-.18,0s.1-.09.16-.16c.29-.36.56-.77.83-1.18,1.07-1.63,2-3.36,3-5-.82,1.79-1.68,3.56-2.63,5.3a10.4,10.4,0,0,1-.81,1.27,1,1,0,0,1-.37.34.38.38,0,0,1-.36,0,.43.43,0,0,1-.13-.16.49.49,0,0,1,0-.11.74.74,0,0,1,0-.26,7.28,7.28,0,0,1,.11-.76,2.91,2.91,0,0,0,0-.63c0-.09,0,0,.06,0s0,0,.05,0l-.09.07a11.16,11.16,0,0,0-.94,1,14.37,14.37,0,0,1-2.15,2.12,8.94,8.94,0,0,1-2.7,1.52,20.87,20.87,0,0,0-2.77.89,25.84,25.84,0,0,0-2.6,1.25,21.64,21.64,0,0,1-2.7,1.3,22.28,22.28,0,0,1-2.85,1,8.39,8.39,0,0,1-1.54.25,11.33,11.33,0,0,1-1.54-.06,6,6,0,0,1-2.91-1.15c-.44-.34-.75-.75-1.08-1a4.63,4.63,0,0,0-1.17-.73,5.7,5.7,0,0,0-2.72-.55,5.22,5.22,0,0,0-1.4.25l-.69.23-.37.11a.8.8,0,0,1-.23,0,.27.27,0,0,1-.25-.23.68.68,0,0,1,.16-.41l.2-.32.4-.61Z" transform="translate(-138.13 -124.77)"/><path d="M317,254.31a16.08,16.08,0,0,0,5.08,4.68,19.49,19.49,0,0,0,3.11,1.45c1.05.39,2.21.57,3.38.93a18.56,18.56,0,0,1,6.26,3.5,10,10,0,0,1,2.4,2.69,8.52,8.52,0,0,1,1.08,3.4,9.46,9.46,0,0,0-3.95-5.48,20.94,20.94,0,0,0-6.1-3.15c-1.06-.36-2.25-.55-3.4-1a16.25,16.25,0,0,1-3.19-1.7,14.44,14.44,0,0,1-2.71-2.35A13.52,13.52,0,0,1,317,254.31Z" transform="translate(-138.13 -124.77)"/><path class="cls-3" d="M341.1,270.49a2.64,2.64,0,0,1-1-.36c-.32-.19-.59-.42-.89-.63a7.28,7.28,0,0,0-.87-.62,1.32,1.32,0,0,0-1-.25,1.28,1.28,0,0,1,.55-.1,2.27,2.27,0,0,1,.54.17,5.28,5.28,0,0,1,.93.6A6,6,0,0,0,341.1,270.49Z" transform="translate(-138.13 -124.77)"/><ellipse class="cls-10" cx="114.43" cy="220.23" rx="114.43" ry="8.09"/><path d="M317.33,218.68c-2.58.79-5.2,1.38-7.71,2.32s-5,1.95-7.64,2.65a17.1,17.1,0,0,1-2,.43c-.67.11-1.34.17-2,.29a19,19,0,0,0-3.74,1.22,29.41,29.41,0,0,0-6.76,4.1,13.18,13.18,0,0,0-2.74,2.74,10,10,0,0,0-1.58,3.47,12.42,12.42,0,0,0-.23,1.92c0,.32,0,.65,0,1l0,.2c0,.05.06.14,0,0a.34.34,0,0,0-.3-.12.41.41,0,0,0-.18.06l-.07.06c0,.05,0,0,0,0l.08-.22a5.8,5.8,0,0,1,1.11-1.84,4.69,4.69,0,0,1,1.77-1.3,1,1,0,0,1,.81,0,.63.63,0,0,1,.3.45,1.11,1.11,0,0,1,0,.36c-.05.4-.16.72-.22,1,0,.13,0,.31,0,.26s-.12-.07-.11-.06l.12,0a4.78,4.78,0,0,0,.76-.53,18.75,18.75,0,0,0,1.47-1.33c.24-.23.48-.45.71-.69s.41-.51.6-.78a7.24,7.24,0,0,0,.54-.82,3.65,3.65,0,0,1,.63-.86,5.35,5.35,0,0,1,1.77-1.06,15.8,15.8,0,0,1,3.93-.91,18,18,0,0,0-3.83,1.15,5,5,0,0,0-1.6,1.09,3,3,0,0,0-.52.8c-.15.3-.33.6-.51.89s-.39.57-.6.83-.48.5-.71.75a19.57,19.57,0,0,1-1.47,1.42,5.12,5.12,0,0,1-.88.64,1,1,0,0,1-.35.12.58.58,0,0,1-.54-.26,1.16,1.16,0,0,1-.07-.73c.06-.36.16-.69.18-1s0-.21,0-.1-.06,0-.17.06a4,4,0,0,0-1.4,1.13,4.84,4.84,0,0,0-.93,1.6l-.1.26a1,1,0,0,1-.13.22.59.59,0,0,1-.11.1.51.51,0,0,1-.24.08.56.56,0,0,1-.41-.17,1,1,0,0,1-.19-.43c0-.11,0-.2-.05-.3a7.74,7.74,0,0,1,0-1.07,12.15,12.15,0,0,1,.23-2.07,10.86,10.86,0,0,1,1.69-3.84,13.9,13.9,0,0,1,2.91-3,30.31,30.31,0,0,1,7-4.16,20.65,20.65,0,0,1,3.93-1.23c1.39-.21,2.66-.29,4-.61,2.59-.59,5.09-1.57,7.67-2.37,1.29-.39,2.59-.74,3.91-1Z" transform="translate(-138.13 -124.77)"/><path class="cls-3" d="M338.3,271c.06.21.2.46,0,.69s-.27,0-.37,0l-.32-.17c-.4-.24-.81-.46-1.21-.69a2.85,2.85,0,0,0-1.24-.39c-.1,0-.09,0-.09,0a2.42,2.42,0,0,1,.07.34.81.81,0,0,1-.37.75,1.54,1.54,0,0,0-.75,1,3.87,3.87,0,0,1-.65,1.32,5.61,5.61,0,0,1-2.35,1.7,23,23,0,0,1-2.77.62,5.8,5.8,0,0,1-1.45.1,2.38,2.38,0,0,1-1.39-.54,6.49,6.49,0,0,1-1-1,4.78,4.78,0,0,1-.41-.59c-.12-.19-.26-.37-.4-.33s-.29.24-.43.42a5.58,5.58,0,0,1-.44.55,5.8,5.8,0,0,1-1.08.9,7.05,7.05,0,0,0,1-1,5.72,5.72,0,0,0,.39-.57c.13-.18.21-.44.53-.55a.47.47,0,0,1,.44.13,2,2,0,0,1,.24.28,6.11,6.11,0,0,0,.42.55,6.7,6.7,0,0,0,1,.92,3.15,3.15,0,0,0,2.53.29,22.78,22.78,0,0,0,2.68-.64,5.26,5.26,0,0,0,2.17-1.51,3.63,3.63,0,0,0,.59-1.18,2,2,0,0,1,.35-.69,2.92,2.92,0,0,1,.58-.46.45.45,0,0,0,.25-.42c0-.1,0-.18-.05-.36s.26-.38.39-.36a2.9,2.9,0,0,1,1.39.49c.39.26.78.52,1.16.79.19.11.41.31.58.25S338.35,271.17,338.3,271Z" transform="translate(-138.13 -124.77)"/><path class="cls-3" d="M323,273.62a4.42,4.42,0,0,1-1.8,2.36,11,11,0,0,1-2.89.88,25.16,25.16,0,0,1-6,.92,8.29,8.29,0,0,1-5.57-2.19c-.76-.68-1.44-1.42-2.14-2.15s-1.29-1.58-2-2.27a4.3,4.3,0,0,0-2.61-1.12c-1-.1-2-.24-3-.44a24.33,24.33,0,0,1-5.82-1.78,12.63,12.63,0,0,1-4.8-3.81,13.56,13.56,0,0,1-2.4-5.67l.72-.08a17.14,17.14,0,0,1-.27,4.74,9.7,9.7,0,0,1-.76,2.3,9.09,9.09,0,0,1-1.39,2,11,11,0,0,0-2.15,3.91,14,14,0,0,0-.68,4.41l0,2.1-.88-1.87a10.14,10.14,0,0,1-.62-1.69c-.14-.59-.24-1.14-.34-1.71-.2-1.14-.36-2.27-.45-3.43l.95,0a19.51,19.51,0,0,1-.42,3.76,15.57,15.57,0,0,1-1.16,3.62,11.59,11.59,0,0,1-2.27,3.09,31.16,31.16,0,0,1-2.89,2.4c-1,.77-2.13,1.32-3,2.05a22.38,22.38,0,0,0-2.62,2.43,17.59,17.59,0,0,0-3.48,6.13l-.25.78-.73-.5a.65.65,0,0,1-.14-.19l0,0,0-.09,0-.05V292l0-.26.06-.49.16-.94.36-1.84.71-3.64,1.23.29a26.55,26.55,0,0,1-4,7.77,29.83,29.83,0,0,1-6.21,6.08,18.43,18.43,0,0,1-1.86,1.19l-1.87,1c-1.22.69-2.44,1.43-3.64,2.16a13.78,13.78,0,0,0-1.66,1.15,9,9,0,0,0-1.2,1.52,11.93,11.93,0,0,0-1.51,3.69l-.47,2.2-.83-2.07-1.34-3.33,1.31-.4a22.25,22.25,0,0,1,.43,3.25,10.71,10.71,0,0,1,0,1.69,3.32,3.32,0,0,1-.7,1.85,1.92,1.92,0,0,1-.51.39,1.72,1.72,0,0,1-.64.18,3,3,0,0,1-1-.16,8.41,8.41,0,0,1-1.56-.78,30.37,30.37,0,0,1-2.61-1.93,37.31,37.31,0,0,0-5.09-3.53c-.44-.26-.9-.49-1.37-.74a7,7,0,0,1-.74-.41,4.49,4.49,0,0,1-.41-.29,3.58,3.58,0,0,1-.35-.37,25.81,25.81,0,0,1-2-2.62l1.28-.65,3.34,8-1.34.6a13.07,13.07,0,0,0-5.14-5.23,28.67,28.67,0,0,0-3.58-1.41c-1.25-.43-2.47-.85-3.72-1.19l-1.92-.47a17.37,17.37,0,0,1-2-.67,25.76,25.76,0,0,1-3.64-1.82,21.15,21.15,0,0,1-3.28-2.44c-.25-.24-.49-.46-.75-.72a8,8,0,0,1-.68-.83l-1.19-1.61-4.61-6.43a37.23,37.23,0,0,1-2.25-3.37c-.64-1.19-1.18-2.42-1.71-3.63l-1.56-3.64a39.08,39.08,0,0,1-1.45-3.76,31.3,31.3,0,0,1-1.29-8,46.45,46.45,0,0,1,.55-8c.19-1.32.43-2.63.69-3.93l.19-1c0-.05,0-.19,0-.11.16.16-.35-.19.42.57,1,0,.66-.31.78-.27l0,0,0,.08-.14.44-.5,1.89-1,3.84-.13.49-.08.25,0,.14,0,.12c-.07-.12.18.41-.89.32-.62-.61-.27-.57-.37-.59a3.54,3.54,0,0,1,.07-.61l.08-.49.36-2c.51-2.6,1.07-5.18,1.69-7.76.31-1.28.64-2.57,1-3.85s.74-2.53,1-3.79c.58-2.54,1.08-5.15,1.43-7.73a52.21,52.21,0,0,0,.44-7.82c0-2.64,0-5.26,0-7.93v-.08l0-.07a35.54,35.54,0,0,1,3.14-6.77,26.93,26.93,0,0,0,3.28-6.49,23.81,23.81,0,0,1,1.72-3.33l2-3.14a31.89,31.89,0,0,1,2.13-3.07,20.73,20.73,0,0,1,2.67-2.63l-.14.25a17.61,17.61,0,0,0,0-3.08c-.06-1.07,0-2.12,0-3.16,0-2.09.25-4.21.2-6.26a26.37,26.37,0,0,0-.39-3.09,2.57,2.57,0,0,1,.24-1.68,15.55,15.55,0,0,1,1-1.21,1.84,1.84,0,0,0,.38-1.32,12.07,12.07,0,0,1,0-1.59l0-3.13v-1.57a8.24,8.24,0,0,1,.23-1.59,17.09,17.09,0,0,1,1.05-3,21.71,21.71,0,0,1,3.49-5.23c.69-.8,1.42-1.55,2.18-2.28.37-.36.76-.72,1.15-1.07l.58-.53.13-.13c.11.08,0,0-.05.11l-.31.24c-.4.33-.81.66-1.24,1a4.13,4.13,0,0,1-1.38.75.33.33,0,0,1-.37-.13.66.66,0,0,1-.06-.39,3.94,3.94,0,0,1,.19-.77,15.15,15.15,0,0,1,.61-1.44c-.21.47-.42,1-.59,1.45a3.34,3.34,0,0,0-.17.76.66.66,0,0,0,0,.37.29.29,0,0,0,.33.1,4.09,4.09,0,0,0,1.35-.75c.42-.31.82-.65,1.22-1l.31-.25.09-.06s0,0,.07,0,.06,0,.05.09l0,0a1,1,0,0,1-.14.15l-.57.54c-.38.35-.76.71-1.13,1.08-.75.74-1.46,1.5-2.13,2.3a21.58,21.58,0,0,0-3.38,5.23,16.36,16.36,0,0,0-1,2.94,7.31,7.31,0,0,0-.21,1.52l0,1.56,0,3.15a13.1,13.1,0,0,0,0,1.54,2.29,2.29,0,0,1-.43,1.64c-.34.46-.78.79-1,1.18a2.16,2.16,0,0,0-.16,1.37,23.82,23.82,0,0,1,.45,3.13c.08,2.14-.15,4.19-.11,6.29,0,1-.06,2.09,0,3.11a17.85,17.85,0,0,1,.05,3.19v.16l-.12.1a21.26,21.26,0,0,0-2.55,2.56,30.94,30.94,0,0,0-2,3,46.34,46.34,0,0,0-3.54,6.36c-.44,1.12-.85,2.32-1.42,3.44-.28.56-.56,1.11-.89,1.65s-.68,1-1,1.56a34.74,34.74,0,0,0-3,6.6l0-.14c0,2.61,0,5.26,0,7.9a52,52,0,0,1-.38,8c-.34,2.65-.81,5.24-1.38,7.85-.3,1.31-.69,2.59-1,3.85s-.66,2.54-1,3.82q-.91,3.84-1.67,7.71l-.35,1.93-.07.48,0,.37c-.1,0,.24.07-.36-.53-1.06-.07-.8.43-.86.29,0,0,0,0,0,0l0-.09L188,259l.13-.47,1-3.83.51-1.93.15-.51.05-.15s0-.07.07-.14-.2-.3.83-.31c.78.78.27.45.43.64a3.08,3.08,0,0,1,0,.37l-.19,1c-.25,1.28-.48,2.57-.67,3.86a45.09,45.09,0,0,0-.51,7.77,29.68,29.68,0,0,0,1.25,7.61c.36,1.2.91,2.41,1.41,3.62l1.56,3.63c.53,1.2,1.07,2.4,1.68,3.52a34.72,34.72,0,0,0,2.16,3.21l4.62,6.41,1.17,1.58a9,9,0,0,0,.58.7c.2.21.45.43.68.65a20,20,0,0,0,3.06,2.27,24.44,24.44,0,0,0,3.44,1.7,13.8,13.8,0,0,0,1.78.6l1.93.47c1.3.35,2.58.78,3.82,1.21a31.2,31.2,0,0,1,3.77,1.51,12.63,12.63,0,0,1,3.32,2.54,14.45,14.45,0,0,1,2.46,3.38l-1.33.6-3.32-8,1.27-.66a22.61,22.61,0,0,0,1.83,2.45c.09.12.15.17.19.22l.23.16c.19.12.41.24.64.36.46.24.95.49,1.41.76a38.29,38.29,0,0,1,5.28,3.68,27.6,27.6,0,0,0,2.46,1.84,6.81,6.81,0,0,0,1.26.64,1.6,1.6,0,0,0,.5.09.21.21,0,0,0,.12,0,.31.31,0,0,0,.11-.09,2.09,2.09,0,0,0,.36-1.08,8.78,8.78,0,0,0,0-1.46,20.32,20.32,0,0,0-.39-3l1.31-.41,1.32,3.34-1.3.13a13,13,0,0,1,1.71-4.17,10,10,0,0,1,1.45-1.81,13.59,13.59,0,0,1,1.85-1.27c1.22-.75,2.44-1.47,3.69-2.18l1.88-1a18.17,18.17,0,0,0,1.74-1.11,28.15,28.15,0,0,0,6-5.79,25.59,25.59,0,0,0,3.77-7.35l1.23.29-.76,3.67-.37,1.81-.15.9-.06.44,0,.2v.08h0v-.05a.19.19,0,0,0,0-.07l0,0a.5.5,0,0,0-.14-.18l-1,.28a18.62,18.62,0,0,1,3.78-6.56,24,24,0,0,1,2.8-2.55c1-.8,2.13-1.34,3.08-2a14.85,14.85,0,0,0,4.88-5.07,14,14,0,0,0,1.11-3.37,18.71,18.71,0,0,0,.43-3.55l.95,0c.07,1.1.22,2.23.4,3.33.1.55.2,1.13.32,1.64a9.43,9.43,0,0,0,.54,1.52l-.85.22a14.51,14.51,0,0,1,.76-4.73,12.12,12.12,0,0,1,2.33-4.16A8.42,8.42,0,0,0,283,265a8.81,8.81,0,0,0,.71-2.1,16.64,16.64,0,0,0,.3-4.51l.72-.08a13,13,0,0,0,2.2,5.38,12.15,12.15,0,0,0,4.52,3.7,24.32,24.32,0,0,0,5.68,1.83c1,.21,2,.36,3,.48a4.57,4.57,0,0,1,2.81,1.26c.73.76,1.28,1.58,2,2.31s1.35,1.49,2.08,2.17a8,8,0,0,0,5.39,2.2,24.59,24.59,0,0,0,5.95-.82,10.84,10.84,0,0,0,2.88-.83A4.39,4.39,0,0,0,323,273.62Z" transform="translate(-138.13 -124.77)"/><polygon class="cls-11" points="23.87 173.23 48.47 129.23 23.87 93.23 0.07 129.23 23.87 173.23"/><ellipse class="cls-12" cx="23.87" cy="87.73" rx="5.46" ry="5.54"/><path class="cls-13" d="M300.87,223.36l-3-5.36-4.39,7.77A30.39,30.39,0,0,1,298,224S299.23,223.65,300.87,223.36Z" transform="translate(-138.13 -124.77)"/><path class="cls-13" d="M300.87,223.36l-3-5.36-4.39,7.77A30.39,30.39,0,0,1,298,224S299.23,223.65,300.87,223.36Z" transform="translate(-138.13 -124.77)"/><path class="cls-14" d="M300.87,223.36l-3-5.36-4.39,7.77A30.39,30.39,0,0,1,298,224S299.23,223.65,300.87,223.36Z" transform="translate(-138.13 -124.77)"/><path class="cls-15" d="M367,253.91l-24.06,43.75-12.56-22.21A7,7,0,0,1,327,276a2,2,0,0,1-2-1,4.49,4.49,0,0,0-1-1c-.22-.56-.82-.43-1,.2s-1.77,1.63-2,1.8a2.55,2.55,0,0,1-1,.4c-4.15.91-5.92,1.39-7.58,1.3a10.56,10.56,0,0,1-2.42-.4c-3.26-1-5-3.7-7.1-6.2A3.14,3.14,0,0,0,301,270a7.7,7.7,0,0,0-1,0,53.69,53.69,0,0,1-8-2,9.84,9.84,0,0,1-5-4c-1.24-2-2.4-4-2.4-4a10,10,0,0,0-.6,2,5.57,5.57,0,0,0,0,1,5.58,5.58,0,0,1-1,3c-.73,1.08-1.15.81-2,2a9.64,9.64,0,0,0-1,2,12.42,12.42,0,0,0-1,3,15.21,15.21,0,0,0,0,3,7.84,7.84,0,0,1-1-4,15.65,15.65,0,0,0,0-2c-.12,0-.35.89-1,3a29.65,29.65,0,0,1-1,3,11.52,11.52,0,0,1-2,3c-1.11,1.23-1.87,1.54-4,3a30,30,0,0,0-4,3c-2.93,2.81-3.71,6.11-4,6s1.23-4.92,1-5-1.05,3-3,6c-2.66,4.06-7.7,7-7.7,7s0-.23.06-.61L206.9,218l-44.82,79.25-23.84-43.34-.05.09v45.17h0V305H367V254Z" transform="translate(-138.13 -124.77)"/><path class="cls-16" d="M140.15,303v-1.87l0-2V261.6l21.86,39.76,44.85-79.3,43.41,76.76-.36,3.87,3.36-2c.22-.13,5.48-3.23,8.36-7.63l.07-.1H262c1.36,0,1.88-1.12,2.26-1.94a14.75,14.75,0,0,1,3.11-4.62,28.76,28.76,0,0,1,3.71-2.77c.58-.4,1-.7,1.44-1a12.71,12.71,0,0,0,2.94-2.37,13.63,13.63,0,0,0,2.08-3A2,2,0,0,0,279,278h.2l.2,0a2.09,2.09,0,0,0,1.58-2.62,6.56,6.56,0,0,1,0-2,10.93,10.93,0,0,1,.87-2.54,8.21,8.21,0,0,1,.79-1.62,2,2,0,0,1,.59-.58,5.28,5.28,0,0,0,1.43-1.46,7.67,7.67,0,0,0,.89-1.7,11.73,11.73,0,0,0,5.73,4.44,36.35,36.35,0,0,0,6.56,1.73c.67.13,1.24.23,1.66.34l.25.07h.33l.35,0,.21,0a1.17,1.17,0,0,1,.75.43l1,1.23c1.83,2.27,3.73,4.61,7,5.59a13,13,0,0,0,2.88.48h.51a27.87,27.87,0,0,0,5.82-1l1.79-.4a4.65,4.65,0,0,0,1.76-.74l.11-.08c.51-.35.94-.68,1.31-1a4,4,0,0,0,3.25,1.46h.56a10.87,10.87,0,0,0,2-.17l13.52,23.92L365,261.6V303Z" transform="translate(-138.13 -124.77)"/><ellipse class="cls-17" cx="68.77" cy="87.73" rx="5.46" ry="5.54"/><ellipse class="cls-18" cx="159.67" cy="87.73" rx="5.46" ry="5.54"/><ellipse class="cls-19" cx="204.87" cy="87.73" rx="5.46" ry="5.54"/><path class="cls-20" d="M367,345H138.13V303.66s24.09-3.6,112.93-3.6c84.37,0,115.94,3.6,115.94,3.6Z" transform="translate(-138.13 -124.77)"/><path class="cls-21" d="M139.13,344V304.54c5-.6,33.05-3.48,111.93-3.48,75.76,0,109.25,2.94,114.94,3.5V344Z" transform="translate(-138.13 -124.77)"/><rect class="cls-22" x="245.93" y="314.93" width="14.14" height="14.14" transform="translate(521.45 246.02) rotate(135)"/><rect class="cls-23" x="246.13" y="315.13" width="13.74" height="13.74" transform="translate(521.45 246.03) rotate(135)"/><rect class="cls-24" x="246.83" y="315.83" width="12.34" height="12.34" transform="translate(521.45 246.02) rotate(135)"/><rect class="cls-25" x="246.93" y="315.93" width="12.14" height="12.14" transform="translate(521.45 246.02) rotate(135)"/><rect class="cls-26" x="247.93" y="316.93" width="10.14" height="10.14" transform="translate(521.45 246.02) rotate(135)"/><circle class="cls-27" cx="215.87" cy="198.23" r="7"/><circle class="cls-28" cx="215.87" cy="198.23" r="6.8"/><circle class="cls-29" cx="215.87" cy="198.23" r="6.1"/><circle class="cls-30" cx="215.87" cy="198.23" r="6"/><circle class="cls-31" cx="215.87" cy="198.23" r="5"/><circle class="cls-32" cx="16.87" cy="198.23" r="7"/><circle class="cls-33" cx="16.87" cy="198.23" r="6.8"/><circle class="cls-34" cx="16.87" cy="198.23" r="6.1"/><circle class="cls-35" cx="16.87" cy="198.23" r="6"/><circle class="cls-36" cx="16.87" cy="198.23" r="5"/><circle class="cls-37" cx="46.87" cy="198.23" r="8"/><circle class="cls-38" cx="46.87" cy="198.23" r="7.77"/><circle class="cls-39" cx="46.87" cy="198.23" r="6.97"/><circle class="cls-40" cx="46.87" cy="198.23" r="6.86"/><circle class="cls-41" cx="46.87" cy="198.23" r="5.71"/><circle class="cls-42" cx="188.87" cy="198.23" r="8"/><circle class="cls-43" cx="188.87" cy="198.23" r="7.77"/><circle class="cls-44" cx="188.87" cy="198.23" r="6.97"/><circle class="cls-45" cx="188.87" cy="198.23" r="6.86"/><circle class="cls-46" cx="188.87" cy="198.23" r="5.71"/><circle class="cls-47" cx="77.87" cy="198.23" r="9"/><circle class="cls-48" cx="77.87" cy="198.23" r="8.74"/><circle class="cls-49" cx="77.87" cy="198.23" r="7.84"/><circle class="cls-50" cx="77.87" cy="198.23" r="7.71"/><circle class="cls-51" cx="77.87" cy="198.23" r="6.43"/><circle class="cls-52" cx="154.87" cy="198.23" r="9"/><circle class="cls-53" cx="154.87" cy="198.23" r="8.74"/><circle class="cls-54" cx="154.87" cy="198.23" r="7.84"/><circle class="cls-55" cx="154.87" cy="198.23" r="7.71"/><circle class="cls-56" cx="154.87" cy="198.23" r="6.43"/></svg>